<svg class="marks" width="685" height="535" xmlns="http://www.w3.org/2000/svg"><g transform="translate(46,6)"><g id="g59" class="type-group"><g transform="translate(0,0)"><rect class="background" width="580" height="481" style="pointer-events: none; fill: none;"></rect><g id="g60" class="type-group"><g transform="translate(0,481)"><rect class="background" width="0" height="0" style="pointer-events: none; fill: none;"></rect><g id="g61" class="type-rule" style="pointer-events: none;"><line x1="26.863636363641813" y1="-481" x2="26.863636363641813" y2="0" style="fill: none; stroke: rgb(216, 216, 216); stroke-width: 1; opacity: 1;"></line><line x1="92.77272727273136" y1="-481" x2="92.77272727273136" y2="0" style="fill: none; stroke: rgb(216, 216, 216); stroke-width: 1; opacity: 1;"></line><line x1="158.68181818182092" y1="-481" x2="158.68181818182092" y2="0" style="fill: none; stroke: rgb(216, 216, 216); stroke-width: 1; opacity: 1;"></line><line x1="224.59090909091043" y1="-481" x2="224.59090909091043" y2="0" style="fill: none; stroke: rgb(216, 216, 216); stroke-width: 1; opacity: 1;"></line><line x1="290.5" y1="-481" x2="290.5" y2="0" style="fill: none; stroke: rgb(216, 216, 216); stroke-width: 1; opacity: 1;"></line><line x1="356.40909090908957" y1="-481" x2="356.40909090908957" y2="0" style="fill: none; stroke: rgb(216, 216, 216); stroke-width: 1; opacity: 1;"></line><line x1="422.31818181817914" y1="-481" x2="422.31818181817914" y2="0" style="fill: none; stroke: rgb(216, 216, 216); stroke-width: 1; opacity: 1;"></line><line x1="488.2272727272686" y1="-481" x2="488.2272727272686" y2="0" style="fill: none; stroke: rgb(216, 216, 216); stroke-width: 1; opacity: 1;"></line><line x1="554.1363636363582" y1="-481" x2="554.1363636363582" y2="0" style="fill: none; stroke: rgb(216, 216, 216); stroke-width: 1; opacity: 1;"></line></g><g id="g62" class="type-rule" style="pointer-events: none;"><line x1="26.863636363641813" y1="0" x2="26.863636363641813" y2="6" style="fill: none; stroke: rgb(0, 0, 0); stroke-width: 1; opacity: 1;"></line><line x1="92.77272727273136" y1="0" x2="92.77272727273136" y2="6" style="fill: none; stroke: rgb(0, 0, 0); stroke-width: 1; opacity: 1;"></line><line x1="158.68181818182092" y1="0" x2="158.68181818182092" y2="6" style="fill: none; stroke: rgb(0, 0, 0); stroke-width: 1; opacity: 1;"></line><line x1="224.59090909091043" y1="0" x2="224.59090909091043" y2="6" style="fill: none; stroke: rgb(0, 0, 0); stroke-width: 1; opacity: 1;"></line><line x1="290.5" y1="0" x2="290.5" y2="6" style="fill: none; stroke: rgb(0, 0, 0); stroke-width: 1; opacity: 1;"></line><line x1="356.40909090908957" y1="0" x2="356.40909090908957" y2="6" style="fill: none; stroke: rgb(0, 0, 0); stroke-width: 1; opacity: 1;"></line><line x1="422.31818181817914" y1="0" x2="422.31818181817914" y2="6" style="fill: none; stroke: rgb(0, 0, 0); stroke-width: 1; opacity: 1;"></line><line x1="488.2272727272686" y1="0" x2="488.2272727272686" y2="6" style="fill: none; stroke: rgb(0, 0, 0); stroke-width: 1; opacity: 1;"></line><line x1="554.1363636363582" y1="0" x2="554.1363636363582" y2="6" style="fill: none; stroke: rgb(0, 0, 0); stroke-width: 1; opacity: 1;"></line></g><g id="g63" class="type-rule" style="pointer-events: none;"></g><g id="g64" class="type-text"><text x="26.863636363641813" y="9" text-anchor="middle" dy=".9em" style="font-style: normal; font-variant: normal; font-weight: normal; font-stretch: normal; font-size: 11px; line-height: normal; font-family: sans-serif; fill: rgb(0, 0, 0); opacity: 1;">2,006</text><text x="92.77272727273136" y="9" text-anchor="middle" dy=".9em" style="font-style: normal; font-variant: normal; font-weight: normal; font-stretch: normal; font-size: 11px; line-height: normal; font-family: sans-serif; fill: rgb(0, 0, 0); opacity: 1;">2,007</text><text x="158.68181818182092" y="9" text-anchor="middle" dy=".9em" style="font-style: normal; font-variant: normal; font-weight: normal; font-stretch: normal; font-size: 11px; line-height: normal; font-family: sans-serif; fill: rgb(0, 0, 0); opacity: 1;">2,008</text><text x="224.59090909091043" y="9" text-anchor="middle" dy=".9em" style="font-style: normal; font-variant: normal; font-weight: normal; font-stretch: normal; font-size: 11px; line-height: normal; font-family: sans-serif; fill: rgb(0, 0, 0); opacity: 1;">2,009</text><text x="290.5" y="9" text-anchor="middle" dy=".9em" style="font-style: normal; font-variant: normal; font-weight: normal; font-stretch: normal; font-size: 11px; line-height: normal; font-family: sans-serif; fill: rgb(0, 0, 0); opacity: 1;">2,010</text><text x="356.40909090908957" y="9" text-anchor="middle" dy=".9em" style="font-style: normal; font-variant: normal; font-weight: normal; font-stretch: normal; font-size: 11px; line-height: normal; font-family: sans-serif; fill: rgb(0, 0, 0); opacity: 1;">2,011</text><text x="422.31818181817914" y="9" text-anchor="middle" dy=".9em" style="font-style: normal; font-variant: normal; font-weight: normal; font-stretch: normal; font-size: 11px; line-height: normal; font-family: sans-serif; fill: rgb(0, 0, 0); opacity: 1;">2,012</text><text x="488.2272727272686" y="9" text-anchor="middle" dy=".9em" style="font-style: normal; font-variant: normal; font-weight: normal; font-stretch: normal; font-size: 11px; line-height: normal; font-family: sans-serif; fill: rgb(0, 0, 0); opacity: 1;">2,013</text><text x="554.1363636363582" y="9" text-anchor="middle" dy=".9em" style="font-style: normal; font-variant: normal; font-weight: normal; font-stretch: normal; font-size: 11px; line-height: normal; font-family: sans-serif; fill: rgb(0, 0, 0); opacity: 1;">2,014</text></g><g id="g65" class="type-path" style="pointer-events: none;"><path transform="translate(0.5,0.5)" d="M0,6V0H580V6" style="fill: none; stroke: rgb(0, 0, 0); stroke-width: 1;"></path></g><g id="g66" class="type-text"><text x="290" y="35" text-anchor="middle" dy=".35em" style="font-style: normal; font-variant: normal; font-weight: bold; font-stretch: normal; font-size: 11px; line-height: normal; font-family: sans-serif; fill: rgb(0, 0, 0);">year</text></g></g></g><g id="g67" class="type-group"><g transform="translate(0,0)"><rect class="background" width="0" height="0" style="pointer-events: none; fill: none;"></rect><g id="g68" class="type-rule" style="pointer-events: none;"><line x1="0" y1="407.5173307912227" x2="580" y2="407.5173307912227" style="fill: none; stroke: rgb(216, 216, 216); stroke-width: 1; opacity: 1;"></line><line x1="0" y1="330.28822639214246" x2="580" y2="330.28822639214246" style="fill: none; stroke: rgb(216, 216, 216); stroke-width: 1; opacity: 1;"></line><line x1="0" y1="253.05912199306226" x2="580" y2="253.05912199306226" style="fill: none; stroke: rgb(216, 216, 216); stroke-width: 1; opacity: 1;"></line><line x1="0" y1="175.830017593982" x2="580" y2="175.830017593982" style="fill: none; stroke: rgb(216, 216, 216); stroke-width: 1; opacity: 1;"></line><line x1="0" y1="98.60091319490179" x2="580" y2="98.60091319490179" style="fill: none; stroke: rgb(216, 216, 216); stroke-width: 1; opacity: 1;"></line><line x1="0" y1="21.371808795821533" x2="580" y2="21.371808795821533" style="fill: none; stroke: rgb(216, 216, 216); stroke-width: 1; opacity: 1;"></line></g><g id="g69" class="type-rule" style="pointer-events: none;"><line x1="-6" y1="407.5173307912227" x2="0" y2="407.5173307912227" style="fill: none; stroke: rgb(0, 0, 0); stroke-width: 1; opacity: 1;"></line><line x1="-6" y1="330.28822639214246" x2="0" y2="330.28822639214246" style="fill: none; stroke: rgb(0, 0, 0); stroke-width: 1; opacity: 1;"></line><line x1="-6" y1="253.05912199306226" x2="0" y2="253.05912199306226" style="fill: none; stroke: rgb(0, 0, 0); stroke-width: 1; opacity: 1;"></line><line x1="-6" y1="175.830017593982" x2="0" y2="175.830017593982" style="fill: none; stroke: rgb(0, 0, 0); stroke-width: 1; opacity: 1;"></line><line x1="-6" y1="98.60091319490179" x2="0" y2="98.60091319490179" style="fill: none; stroke: rgb(0, 0, 0); stroke-width: 1; opacity: 1;"></line><line x1="-6" y1="21.371808795821533" x2="0" y2="21.371808795821533" style="fill: none; stroke: rgb(0, 0, 0); stroke-width: 1; opacity: 1;"></line></g><g id="g70" class="type-rule" style="pointer-events: none;"></g><g id="g71" class="type-text"><text x="-9" y="407.5173307912227" text-anchor="end" dy=".35em" style="font-style: normal; font-variant: normal; font-weight: normal; font-stretch: normal; font-size: 11px; line-height: normal; font-family: sans-serif; fill: rgb(0, 0, 0); opacity: 1;">0.600</text><text x="-9" y="330.28822639214246" text-anchor="end" dy=".35em" style="font-style: normal; font-variant: normal; font-weight: normal; font-stretch: normal; font-size: 11px; line-height: normal; font-family: sans-serif; fill: rgb(0, 0, 0); opacity: 1;">0.605</text><text x="-9" y="253.05912199306226" text-anchor="end" dy=".35em" style="font-style: normal; font-variant: normal; font-weight: normal; font-stretch: normal; font-size: 11px; line-height: normal; font-family: sans-serif; fill: rgb(0, 0, 0); opacity: 1;">0.610</text><text x="-9" y="175.830017593982" text-anchor="end" dy=".35em" style="font-style: normal; font-variant: normal; font-weight: normal; font-stretch: normal; font-size: 11px; line-height: normal; font-family: sans-serif; fill: rgb(0, 0, 0); opacity: 1;">0.615</text><text x="-9" y="98.60091319490179" text-anchor="end" dy=".35em" style="font-style: normal; font-variant: normal; font-weight: normal; font-stretch: normal; font-size: 11px; line-height: normal; font-family: sans-serif; fill: rgb(0, 0, 0); opacity: 1;">0.620</text><text x="-9" y="21.371808795821533" text-anchor="end" dy=".35em" style="font-style: normal; font-variant: normal; font-weight: normal; font-stretch: normal; font-size: 11px; line-height: normal; font-family: sans-serif; fill: rgb(0, 0, 0); opacity: 1;">0.625</text></g><g id="g72" class="type-path" style="pointer-events: none;"><path transform="translate(0.5,0.5)" d="M-6,0H0V481H-6" style="fill: none; stroke: rgb(0, 0, 0); stroke-width: 1;"></path></g><g id="g73" class="type-text"><text x="-35" y="240" text-anchor="middle" transform="rotate(-90 -35,240)" dy=".35em" style="font-style: normal; font-variant: normal; font-weight: bold; font-stretch: normal; font-size: 11px; line-height: normal; font-family: sans-serif; fill: rgb(0, 0, 0);">first_in</text></g></g></g><g id="g74" class="type-group"><g transform="translate(0,0)"><rect class="background" width="0" height="0" style="fill: none;"></rect><g id="g75" class="type-symbol"><path transform="translate(26.363636363641813,459.1363636363576)" d="M0,3.989422804014327A3.989422804014327,3.989422804014327 0 1,1 0,-3.989422804014327A3.989422804014327,3.989422804014327 0 1,1 0,3.989422804014327Z" style="fill: rgb(31, 119, 180);"></path><path transform="translate(26.363636363641813,21.863636363644087)" d="M0,3.989422804014327A3.989422804014327,3.989422804014327 0 1,1 0,-3.989422804014327A3.989422804014327,3.989422804014327 0 1,1 0,3.989422804014327Z" style="fill: rgb(255, 127, 14);"></path></g></g><g transform="translate(0,0)"><rect class="background" width="0" height="0" style="fill: none;"></rect><g id="g76" class="type-symbol"><path transform="translate(92.27272727273136,356.9283021273616)" d="M0,3.989422804014327A3.989422804014327,3.989422804014327 0 1,1 0,-3.989422804014327A3.989422804014327,3.989422804014327 0 1,1 0,3.989422804014327Z" style="fill: rgb(31, 119, 180);"></path><path transform="translate(92.27272727273136,42.92521029003941)" d="M0,3.989422804014327A3.989422804014327,3.989422804014327 0 1,1 0,-3.989422804014327A3.989422804014327,3.989422804014327 0 1,1 0,3.989422804014327Z" style="fill: rgb(255, 127, 14);"></path></g></g><g transform="translate(0,0)"><rect class="background" width="0" height="0" style="fill: none;"></rect><g id="g77" class="type-symbol"><path transform="translate(158.18181818182092,341.5799904935138)" d="M0,3.989422804014327A3.989422804014327,3.989422804014327 0 1,1 0,-3.989422804014327A3.989422804014327,3.989422804014327 0 1,1 0,3.989422804014327Z" style="fill: rgb(31, 119, 180);"></path><path transform="translate(158.18181818182092,114.6814810846287)" d="M0,3.989422804014327A3.989422804014327,3.989422804014327 0 1,1 0,-3.989422804014327A3.989422804014327,3.989422804014327 0 1,1 0,3.989422804014327Z" style="fill: rgb(255, 127, 14);"></path></g></g><g transform="translate(0,0)"><rect class="background" width="0" height="0" style="fill: none;"></rect><g id="g78" class="type-symbol"><path transform="translate(224.09090909091043,298.1247898435915)" d="M0,3.989422804014327A3.989422804014327,3.989422804014327 0 1,1 0,-3.989422804014327A3.989422804014327,3.989422804014327 0 1,1 0,3.989422804014327Z" style="fill: rgb(31, 119, 180);"></path><path transform="translate(224.09090909091043,237.36663494577965)" d="M0,3.989422804014327A3.989422804014327,3.989422804014327 0 1,1 0,-3.989422804014327A3.989422804014327,3.989422804014327 0 1,1 0,3.989422804014327Z" style="fill: rgb(255, 127, 14);"></path></g></g><g transform="translate(0,0)"><rect class="background" width="0" height="0" style="fill: none;"></rect><g id="g79" class="type-symbol"><path transform="translate(290,369.8215754632833)" d="M0,3.989422804014327A3.989422804014327,3.989422804014327 0 1,1 0,-3.989422804014327A3.989422804014327,3.989422804014327 0 1,1 0,3.989422804014327Z" style="fill: rgb(31, 119, 180);"></path><path transform="translate(290,115.51144362472498)" d="M0,3.989422804014327A3.989422804014327,3.989422804014327 0 1,1 0,-3.989422804014327A3.989422804014327,3.989422804014327 0 1,1 0,3.989422804014327Z" style="fill: rgb(255, 127, 14);"></path></g></g><g transform="translate(0,0)"><rect class="background" width="0" height="0" style="fill: none;"></rect><g id="g80" class="type-symbol"><path transform="translate(355.90909090908957,448.94869346057965)" d="M0,3.989422804014327A3.989422804014327,3.989422804014327 0 1,1 0,-3.989422804014327A3.989422804014327,3.989422804014327 0 1,1 0,3.989422804014327Z" style="fill: rgb(31, 119, 180);"></path><path transform="translate(355.90909090908957,138.55899057320414)" d="M0,3.989422804014327A3.989422804014327,3.989422804014327 0 1,1 0,-3.989422804014327A3.989422804014327,3.989422804014327 0 1,1 0,3.989422804014327Z" style="fill: rgb(255, 127, 14);"></path></g></g><g transform="translate(0,0)"><rect class="background" width="0" height="0" style="fill: none;"></rect><g id="g81" class="type-symbol"><path transform="translate(421.81818181817914,342.42206836945627)" d="M0,3.989422804014327A3.989422804014327,3.989422804014327 0 1,1 0,-3.989422804014327A3.989422804014327,3.989422804014327 0 1,1 0,3.989422804014327Z" style="fill: rgb(31, 119, 180);"></path><path transform="translate(421.81818181817914,220.04633023515396)" d="M0,3.989422804014327A3.989422804014327,3.989422804014327 0 1,1 0,-3.989422804014327A3.989422804014327,3.989422804014327 0 1,1 0,3.989422804014327Z" style="fill: rgb(255, 127, 14);"></path></g></g><g transform="translate(0,0)"><rect class="background" width="0" height="0" style="fill: none;"></rect><g id="g82" class="type-symbol"><path transform="translate(487.7272727272686,388.8449343735974)" d="M0,3.989422804014327A3.989422804014327,3.989422804014327 0 1,1 0,-3.989422804014327A3.989422804014327,3.989422804014327 0 1,1 0,3.989422804014327Z" style="fill: rgb(31, 119, 180);"></path><path transform="translate(487.7272727272686,241.1088403171224)" d="M0,3.989422804014327A3.989422804014327,3.989422804014327 0 1,1 0,-3.989422804014327A3.989422804014327,3.989422804014327 0 1,1 0,3.989422804014327Z" style="fill: rgb(255, 127, 14);"></path></g></g><g transform="translate(0,0)"><rect class="background" width="0" height="0" style="fill: none;"></rect><g id="g83" class="type-symbol"><path transform="translate(553.6363636363582,336.2666536620917)" d="M0,3.989422804014327A3.989422804014327,3.989422804014327 0 1,1 0,-3.989422804014327A3.989422804014327,3.989422804014327 0 1,1 0,3.989422804014327Z" style="fill: rgb(31, 119, 180);"></path><path transform="translate(553.6363636363582,195.2574876246047)" d="M0,3.989422804014327A3.989422804014327,3.989422804014327 0 1,1 0,-3.989422804014327A3.989422804014327,3.989422804014327 0 1,1 0,3.989422804014327Z" style="fill: rgb(255, 127, 14);"></path></g></g></g><g id="g84" class="type-group"><g transform="translate(591.5,0.5)"><rect class="background" width="42" height="46" style="pointer-events: none; fill: none;"></rect><g id="g85" class="type-text" style="pointer-events: none;"><text x="3" y="3" text-anchor="start" dy=".9em" style="font-style: normal; font-variant: normal; font-weight: bold; font-stretch: normal; font-size: 11px; line-height: normal; font-family: sans-serif; fill: rgb(0, 0, 0); opacity: 1;">tour</text></g><g id="g86" class="type-symbol" style="pointer-events: none;"><path transform="translate(7.5,23)" d="M0,3.989422804014327A3.989422804014327,3.989422804014327 0 1,1 0,-3.989422804014327A3.989422804014327,3.989422804014327 0 1,1 0,3.989422804014327Z" style="fill: rgb(31, 119, 180); stroke: rgb(136, 136, 136); stroke-width: 1; opacity: 1;"></path><path transform="translate(7.5,38)" d="M0,3.989422804014327A3.989422804014327,3.989422804014327 0 1,1 0,-3.989422804014327A3.989422804014327,3.989422804014327 0 1,1 0,3.989422804014327Z" style="fill: rgb(255, 127, 14); stroke: rgb(136, 136, 136); stroke-width: 1; opacity: 1;"></path></g><g id="g87" class="type-text" style="pointer-events: none;"><text x="16" y="23" text-anchor="start" dy=".35em" style="font-style: normal; font-variant: normal; font-weight: normal; font-stretch: normal; font-size: 10px; line-height: normal; font-family: sans-serif; fill: rgb(0, 0, 0); opacity: 1;">ATP</text><text x="16" y="38" text-anchor="start" dy=".35em" style="font-style: normal; font-variant: normal; font-weight: normal; font-stretch: normal; font-size: 10px; line-height: normal; font-family: sans-serif; fill: rgb(0, 0, 0); opacity: 1;">WTA</text></g></g></g></g></g></g></svg>