<svg class="marks" width="904" height="646" xmlns="http://www.w3.org/2000/svg"><g transform="translate(46,6)"><g id="g51" class="type-group"><g transform="translate(0,0)"><rect class="background" width="798" height="592" style="pointer-events: none; fill: none;"></rect><g id="g52" class="type-group"><g transform="translate(0,592)"><rect class="background" width="0" height="0" style="pointer-events: none; fill: none;"></rect><g id="g53" class="type-rule" style="pointer-events: none;"><line x1="24.045454545454543" y1="-592" x2="24.045454545454543" y2="0" style="fill: none; stroke: rgb(216, 216, 216); stroke-width: 1px; opacity: 1;"></line><line x1="87.68181818181817" y1="-592" x2="87.68181818181817" y2="0" style="fill: none; stroke: rgb(216, 216, 216); stroke-width: 1px; opacity: 1;"></line><line x1="151.3181818181818" y1="-592" x2="151.3181818181818" y2="0" style="fill: none; stroke: rgb(216, 216, 216); stroke-width: 1px; opacity: 1;"></line><line x1="214.95454545454547" y1="-592" x2="214.95454545454547" y2="0" style="fill: none; stroke: rgb(216, 216, 216); stroke-width: 1px; opacity: 1;"></line><line x1="278.5909090909091" y1="-592" x2="278.5909090909091" y2="0" style="fill: none; stroke: rgb(216, 216, 216); stroke-width: 1px; opacity: 1;"></line><line x1="342.22727272727275" y1="-592" x2="342.22727272727275" y2="0" style="fill: none; stroke: rgb(216, 216, 216); stroke-width: 1px; opacity: 1;"></line><line x1="405.8636363636364" y1="-592" x2="405.8636363636364" y2="0" style="fill: none; stroke: rgb(216, 216, 216); stroke-width: 1px; opacity: 1;"></line><line x1="469.50000000000006" y1="-592" x2="469.50000000000006" y2="0" style="fill: none; stroke: rgb(216, 216, 216); stroke-width: 1px; opacity: 1;"></line><line x1="533.1363636363636" y1="-592" x2="533.1363636363636" y2="0" style="fill: none; stroke: rgb(216, 216, 216); stroke-width: 1px; opacity: 1;"></line><line x1="596.7727272727273" y1="-592" x2="596.7727272727273" y2="0" style="fill: none; stroke: rgb(216, 216, 216); stroke-width: 1px; opacity: 1;"></line><line x1="660.4090909090909" y1="-592" x2="660.4090909090909" y2="0" style="fill: none; stroke: rgb(216, 216, 216); stroke-width: 1px; opacity: 1;"></line><line x1="724.0454545454545" y1="-592" x2="724.0454545454545" y2="0" style="fill: none; stroke: rgb(216, 216, 216); stroke-width: 1px; opacity: 1;"></line><line x1="787.6818181818181" y1="-592" x2="787.6818181818181" y2="0" style="fill: none; stroke: rgb(216, 216, 216); stroke-width: 1px; opacity: 1;"></line></g><g id="g54" class="type-rule" style="pointer-events: none;"><line x1="24.045454545454543" y1="0" x2="24.045454545454543" y2="6" style="fill: none; stroke: rgb(0, 0, 0); stroke-width: 1px; opacity: 1;"></line><line x1="87.68181818181817" y1="0" x2="87.68181818181817" y2="6" style="fill: none; stroke: rgb(0, 0, 0); stroke-width: 1px; opacity: 1;"></line><line x1="151.3181818181818" y1="0" x2="151.3181818181818" y2="6" style="fill: none; stroke: rgb(0, 0, 0); stroke-width: 1px; opacity: 1;"></line><line x1="214.95454545454547" y1="0" x2="214.95454545454547" y2="6" style="fill: none; stroke: rgb(0, 0, 0); stroke-width: 1px; opacity: 1;"></line><line x1="278.5909090909091" y1="0" x2="278.5909090909091" y2="6" style="fill: none; stroke: rgb(0, 0, 0); stroke-width: 1px; opacity: 1;"></line><line x1="342.22727272727275" y1="0" x2="342.22727272727275" y2="6" style="fill: none; stroke: rgb(0, 0, 0); stroke-width: 1px; opacity: 1;"></line><line x1="405.8636363636364" y1="0" x2="405.8636363636364" y2="6" style="fill: none; stroke: rgb(0, 0, 0); stroke-width: 1px; opacity: 1;"></line><line x1="469.50000000000006" y1="0" x2="469.50000000000006" y2="6" style="fill: none; stroke: rgb(0, 0, 0); stroke-width: 1px; opacity: 1;"></line><line x1="533.1363636363636" y1="0" x2="533.1363636363636" y2="6" style="fill: none; stroke: rgb(0, 0, 0); stroke-width: 1px; opacity: 1;"></line><line x1="596.7727272727273" y1="0" x2="596.7727272727273" y2="6" style="fill: none; stroke: rgb(0, 0, 0); stroke-width: 1px; opacity: 1;"></line><line x1="660.4090909090909" y1="0" x2="660.4090909090909" y2="6" style="fill: none; stroke: rgb(0, 0, 0); stroke-width: 1px; opacity: 1;"></line><line x1="724.0454545454545" y1="0" x2="724.0454545454545" y2="6" style="fill: none; stroke: rgb(0, 0, 0); stroke-width: 1px; opacity: 1;"></line><line x1="787.6818181818181" y1="0" x2="787.6818181818181" y2="6" style="fill: none; stroke: rgb(0, 0, 0); stroke-width: 1px; opacity: 1;"></line></g><g id="g55" class="type-rule" style="pointer-events: none;"></g><g id="g56" class="type-text"><text x="24.045454545454543" y="9" text-anchor="middle" dy=".9em" style="font-style: normal; font-variant: normal; font-weight: normal; font-stretch: normal; font-size: 11px; line-height: normal; font-family: sans-serif; fill: rgb(0, 0, 0); opacity: 1;">0</text><text x="87.68181818181817" y="9" text-anchor="middle" dy=".9em" style="font-style: normal; font-variant: normal; font-weight: normal; font-stretch: normal; font-size: 11px; line-height: normal; font-family: sans-serif; fill: rgb(0, 0, 0); opacity: 1;">5</text><text x="151.3181818181818" y="9" text-anchor="middle" dy=".9em" style="font-style: normal; font-variant: normal; font-weight: normal; font-stretch: normal; font-size: 11px; line-height: normal; font-family: sans-serif; fill: rgb(0, 0, 0); opacity: 1;">10</text><text x="214.95454545454547" y="9" text-anchor="middle" dy=".9em" style="font-style: normal; font-variant: normal; font-weight: normal; font-stretch: normal; font-size: 11px; line-height: normal; font-family: sans-serif; fill: rgb(0, 0, 0); opacity: 1;">15</text><text x="278.5909090909091" y="9" text-anchor="middle" dy=".9em" style="font-style: normal; font-variant: normal; font-weight: normal; font-stretch: normal; font-size: 11px; line-height: normal; font-family: sans-serif; fill: rgb(0, 0, 0); opacity: 1;">20</text><text x="342.22727272727275" y="9" text-anchor="middle" dy=".9em" style="font-style: normal; font-variant: normal; font-weight: normal; font-stretch: normal; font-size: 11px; line-height: normal; font-family: sans-serif; fill: rgb(0, 0, 0); opacity: 1;">25</text><text x="405.8636363636364" y="9" text-anchor="middle" dy=".9em" style="font-style: normal; font-variant: normal; font-weight: normal; font-stretch: normal; font-size: 11px; line-height: normal; font-family: sans-serif; fill: rgb(0, 0, 0); opacity: 1;">30</text><text x="469.50000000000006" y="9" text-anchor="middle" dy=".9em" style="font-style: normal; font-variant: normal; font-weight: normal; font-stretch: normal; font-size: 11px; line-height: normal; font-family: sans-serif; fill: rgb(0, 0, 0); opacity: 1;">35</text><text x="533.1363636363636" y="9" text-anchor="middle" dy=".9em" style="font-style: normal; font-variant: normal; font-weight: normal; font-stretch: normal; font-size: 11px; line-height: normal; font-family: sans-serif; fill: rgb(0, 0, 0); opacity: 1;">40</text><text x="596.7727272727273" y="9" text-anchor="middle" dy=".9em" style="font-style: normal; font-variant: normal; font-weight: normal; font-stretch: normal; font-size: 11px; line-height: normal; font-family: sans-serif; fill: rgb(0, 0, 0); opacity: 1;">45</text><text x="660.4090909090909" y="9" text-anchor="middle" dy=".9em" style="font-style: normal; font-variant: normal; font-weight: normal; font-stretch: normal; font-size: 11px; line-height: normal; font-family: sans-serif; fill: rgb(0, 0, 0); opacity: 1;">50</text><text x="724.0454545454545" y="9" text-anchor="middle" dy=".9em" style="font-style: normal; font-variant: normal; font-weight: normal; font-stretch: normal; font-size: 11px; line-height: normal; font-family: sans-serif; fill: rgb(0, 0, 0); opacity: 1;">55</text><text x="787.6818181818181" y="9" text-anchor="middle" dy=".9em" style="font-style: normal; font-variant: normal; font-weight: normal; font-stretch: normal; font-size: 11px; line-height: normal; font-family: sans-serif; fill: rgb(0, 0, 0); opacity: 1;">60</text></g><g id="g57" class="type-path" style="pointer-events: none;"><path transform="translate(0.5,0.5)" d="M0,6V0H798V6" style="fill: none; stroke: rgb(0, 0, 0); stroke-width: 1px;"></path></g><g id="g58" class="type-text"><text x="399" y="35" text-anchor="middle" dy=".35em" style="font-weight: bold; font-style: normal; font-variant: normal; font-stretch: normal; font-size: 11px; line-height: normal; font-family: sans-serif; fill: rgb(0, 0, 0);">Match Order</text></g></g></g><g id="g59" class="type-group"><g transform="translate(0,0)"><rect class="background" width="0" height="0" style="pointer-events: none; fill: none;"></rect><g id="g60" class="type-rule" style="pointer-events: none;"><line x1="0" y1="576.3545454545455" x2="798" y2="576.3545454545455" style="fill: none; stroke: rgb(216, 216, 216); stroke-width: 1px; opacity: 1;"></line><line x1="0" y1="522.5363636363636" x2="798" y2="522.5363636363636" style="fill: none; stroke: rgb(216, 216, 216); stroke-width: 1px; opacity: 1;"></line><line x1="0" y1="468.7181818181818" x2="798" y2="468.7181818181818" style="fill: none; stroke: rgb(216, 216, 216); stroke-width: 1px; opacity: 1;"></line><line x1="0" y1="414.9" x2="798" y2="414.9" style="fill: none; stroke: rgb(216, 216, 216); stroke-width: 1px; opacity: 1;"></line><line x1="0" y1="361.0818181818182" x2="798" y2="361.0818181818182" style="fill: none; stroke: rgb(216, 216, 216); stroke-width: 1px; opacity: 1;"></line><line x1="0" y1="307.26363636363635" x2="798" y2="307.26363636363635" style="fill: none; stroke: rgb(216, 216, 216); stroke-width: 1px; opacity: 1;"></line><line x1="0" y1="253.44545454545454" x2="798" y2="253.44545454545454" style="fill: none; stroke: rgb(216, 216, 216); stroke-width: 1px; opacity: 1;"></line><line x1="0" y1="199.6272727272727" x2="798" y2="199.6272727272727" style="fill: none; stroke: rgb(216, 216, 216); stroke-width: 1px; opacity: 1;"></line><line x1="0" y1="145.8090909090909" x2="798" y2="145.8090909090909" style="fill: none; stroke: rgb(216, 216, 216); stroke-width: 1px; opacity: 1;"></line><line x1="0" y1="91.99090909090908" x2="798" y2="91.99090909090908" style="fill: none; stroke: rgb(216, 216, 216); stroke-width: 1px; opacity: 1;"></line><line x1="0" y1="38.17272727272725" x2="798" y2="38.17272727272725" style="fill: none; stroke: rgb(216, 216, 216); stroke-width: 1px; opacity: 1;"></line></g><g id="g61" class="type-rule" style="pointer-events: none;"><line x1="-6" y1="576.3545454545455" x2="0" y2="576.3545454545455" style="fill: none; stroke: rgb(0, 0, 0); stroke-width: 1px; opacity: 1;"></line><line x1="-6" y1="522.5363636363636" x2="0" y2="522.5363636363636" style="fill: none; stroke: rgb(0, 0, 0); stroke-width: 1px; opacity: 1;"></line><line x1="-6" y1="468.7181818181818" x2="0" y2="468.7181818181818" style="fill: none; stroke: rgb(0, 0, 0); stroke-width: 1px; opacity: 1;"></line><line x1="-6" y1="414.9" x2="0" y2="414.9" style="fill: none; stroke: rgb(0, 0, 0); stroke-width: 1px; opacity: 1;"></line><line x1="-6" y1="361.0818181818182" x2="0" y2="361.0818181818182" style="fill: none; stroke: rgb(0, 0, 0); stroke-width: 1px; opacity: 1;"></line><line x1="-6" y1="307.26363636363635" x2="0" y2="307.26363636363635" style="fill: none; stroke: rgb(0, 0, 0); stroke-width: 1px; opacity: 1;"></line><line x1="-6" y1="253.44545454545454" x2="0" y2="253.44545454545454" style="fill: none; stroke: rgb(0, 0, 0); stroke-width: 1px; opacity: 1;"></line><line x1="-6" y1="199.6272727272727" x2="0" y2="199.6272727272727" style="fill: none; stroke: rgb(0, 0, 0); stroke-width: 1px; opacity: 1;"></line><line x1="-6" y1="145.8090909090909" x2="0" y2="145.8090909090909" style="fill: none; stroke: rgb(0, 0, 0); stroke-width: 1px; opacity: 1;"></line><line x1="-6" y1="91.99090909090908" x2="0" y2="91.99090909090908" style="fill: none; stroke: rgb(0, 0, 0); stroke-width: 1px; opacity: 1;"></line><line x1="-6" y1="38.17272727272725" x2="0" y2="38.17272727272725" style="fill: none; stroke: rgb(0, 0, 0); stroke-width: 1px; opacity: 1;"></line></g><g id="g62" class="type-rule" style="pointer-events: none;"></g><g id="g63" class="type-text"><text x="-9" y="576.3545454545455" text-anchor="end" dy=".35em" style="font-style: normal; font-variant: normal; font-weight: normal; font-stretch: normal; font-size: 11px; line-height: normal; font-family: sans-serif; fill: rgb(0, 0, 0); opacity: 1;">0</text><text x="-9" y="522.5363636363636" text-anchor="end" dy=".35em" style="font-style: normal; font-variant: normal; font-weight: normal; font-stretch: normal; font-size: 11px; line-height: normal; font-family: sans-serif; fill: rgb(0, 0, 0); opacity: 1;">5</text><text x="-9" y="468.7181818181818" text-anchor="end" dy=".35em" style="font-style: normal; font-variant: normal; font-weight: normal; font-stretch: normal; font-size: 11px; line-height: normal; font-family: sans-serif; fill: rgb(0, 0, 0); opacity: 1;">10</text><text x="-9" y="414.9" text-anchor="end" dy=".35em" style="font-style: normal; font-variant: normal; font-weight: normal; font-stretch: normal; font-size: 11px; line-height: normal; font-family: sans-serif; fill: rgb(0, 0, 0); opacity: 1;">15</text><text x="-9" y="361.0818181818182" text-anchor="end" dy=".35em" style="font-style: normal; font-variant: normal; font-weight: normal; font-stretch: normal; font-size: 11px; line-height: normal; font-family: sans-serif; fill: rgb(0, 0, 0); opacity: 1;">20</text><text x="-9" y="307.26363636363635" text-anchor="end" dy=".35em" style="font-style: normal; font-variant: normal; font-weight: normal; font-stretch: normal; font-size: 11px; line-height: normal; font-family: sans-serif; fill: rgb(0, 0, 0); opacity: 1;">25</text><text x="-9" y="253.44545454545454" text-anchor="end" dy=".35em" style="font-style: normal; font-variant: normal; font-weight: normal; font-stretch: normal; font-size: 11px; line-height: normal; font-family: sans-serif; fill: rgb(0, 0, 0); opacity: 1;">30</text><text x="-9" y="199.6272727272727" text-anchor="end" dy=".35em" style="font-style: normal; font-variant: normal; font-weight: normal; font-stretch: normal; font-size: 11px; line-height: normal; font-family: sans-serif; fill: rgb(0, 0, 0); opacity: 1;">35</text><text x="-9" y="145.8090909090909" text-anchor="end" dy=".35em" style="font-style: normal; font-variant: normal; font-weight: normal; font-stretch: normal; font-size: 11px; line-height: normal; font-family: sans-serif; fill: rgb(0, 0, 0); opacity: 1;">40</text><text x="-9" y="91.99090909090908" text-anchor="end" dy=".35em" style="font-style: normal; font-variant: normal; font-weight: normal; font-stretch: normal; font-size: 11px; line-height: normal; font-family: sans-serif; fill: rgb(0, 0, 0); opacity: 1;">45</text><text x="-9" y="38.17272727272725" text-anchor="end" dy=".35em" style="font-style: normal; font-variant: normal; font-weight: normal; font-stretch: normal; font-size: 11px; line-height: normal; font-family: sans-serif; fill: rgb(0, 0, 0); opacity: 1;">50</text></g><g id="g64" class="type-path" style="pointer-events: none;"><path transform="translate(0.5,0.5)" d="M-6,0H0V592H-6" style="fill: none; stroke: rgb(0, 0, 0); stroke-width: 1px;"></path></g><g id="g65" class="type-text"><text x="-35" y="296" text-anchor="middle" transform="rotate(-90 -35,296)" dy=".35em" style="font-weight: bold; font-style: normal; font-variant: normal; font-stretch: normal; font-size: 11px; line-height: normal; font-family: sans-serif; fill: rgb(0, 0, 0);">Cumulative Wins for Season</text></g></g></g><g id="g66" class="type-group"><g transform="translate(0,0)"><rect class="background" width="0" height="0" style="fill: none;"></rect><g id="g67" class="type-line"><path d="M36.27272727272727,565.0909090909091L49,554.3272727272728L61.72727272727272,543.5636363636364L74.45454545454544,532.8000000000001L87.18181818181817,522.0363636363636L99.90909090909089,511.27272727272725L112.63636363636363,511.27272727272725L125.36363636363636,500.5090909090909L138.09090909090907,489.74545454545455L150.8181818181818,489.74545454545455L163.54545454545453,478.9818181818182L176.27272727272725,468.2181818181818L189,457.45454545454544L201.7272727272727,446.6909090909091L214.45454545454547,435.9272727272727L227.18181818181816,425.1636363636364L239.9090909090909,425.1636363636364L252.63636363636365,414.4L265.3636363636364,403.6363636363637L278.0909090909091,392.8727272727272L290.81818181818187,382.1090909090909L303.54545454545456,371.3454545454545L316.27272727272725,360.5818181818182L329,349.81818181818176L341.72727272727275,339.05454545454546L354.4545454545455,328.2909090909091L367.1818181818182,328.2909090909091L379.9090909090909,317.52727272727276L392.6363636363636,306.76363636363635L405.3636363636364,306.76363636363635L418.0909090909091,296L430.8181818181818,285.23636363636365L443.54545454545456,274.47272727272724L456.2727272727273,263.7090909090909L469.00000000000006,252.94545454545454L481.7272727272727,242.18181818181816L494.45454545454544,231.4181818181818L507.18181818181813,231.4181818181818L519.9090909090909,220.65454545454543L532.6363636363636,209.89090909090908L545.3636363636364,199.1272727272727L558.0909090909091,188.3636363636364L570.8181818181819,177.60000000000002L583.5454545454546,166.83636363636367L596.2727272727273,156.0727272727273L609,145.3090909090909L621.7272727272726,134.54545454545456L634.4545454545454,123.7818181818182L647.1818181818181,113.01818181818183L659.9090909090909,102.25454545454545L672.6363636363636,91.49090909090908L685.3636363636364,80.72727272727272L698.0909090909091,69.96363636363635L710.8181818181819,59.19999999999999L723.5454545454545,59.19999999999999L736.2727272727273,48.43636363636362L749,37.67272727272725L761.7272727272726,26.909090909090885" style="fill: none; stroke: rgb(211, 211, 211);"></path></g></g><g transform="translate(0,0)"><rect class="background" width="0" height="0" style="fill: none;"></rect><g id="g68" class="type-line"><path d="M36.27272727272727,565.0909090909091L49,554.3272727272728L61.72727272727272,543.5636363636364L74.45454545454544,532.8000000000001L87.18181818181817,522.0363636363636L99.90909090909089,511.27272727272725L112.63636363636363,500.5090909090909L125.36363636363636,489.74545454545455L138.09090909090907,478.9818181818182L150.8181818181818,468.2181818181818L163.54545454545453,457.45454545454544L176.27272727272725,446.6909090909091L189,435.9272727272727L201.7272727272727,425.1636363636364L214.45454545454547,414.4L227.18181818181816,403.6363636363637L239.9090909090909,392.8727272727272L252.63636363636365,382.1090909090909L265.3636363636364,371.3454545454545L278.0909090909091,360.5818181818182L290.81818181818187,349.81818181818176L303.54545454545456,349.81818181818176L316.27272727272725,339.05454545454546L329,328.2909090909091L341.72727272727275,317.52727272727276L354.4545454545455,306.76363636363635L367.1818181818182,296L379.9090909090909,285.23636363636365L392.6363636363636,274.47272727272724L405.3636363636364,263.7090909090909L418.0909090909091,252.94545454545454L430.8181818181818,242.18181818181816L443.54545454545456,231.4181818181818L456.2727272727273,220.65454545454543L469.00000000000006,209.89090909090908L481.7272727272727,199.1272727272727L494.45454545454544,188.3636363636364L507.18181818181813,177.60000000000002L519.9090909090909,166.83636363636367L532.6363636363636,156.0727272727273L545.3636363636364,145.3090909090909L558.0909090909091,145.3090909090909L570.8181818181819,134.54545454545456L583.5454545454546,123.7818181818182L596.2727272727273,113.01818181818183L609,102.25454545454545L621.7272727272726,91.49090909090908" style="fill: none; stroke: rgb(211, 211, 211);"></path></g></g></g><g id="g69" class="type-group"><g transform="translate(0,0)"><rect class="background" width="0" height="0" style="fill: none;"></rect><g id="g70" class="type-symbol"><path transform="translate(36.27272727272727,565.0909090909091)" d="M0,5.046265044040321A5.046265044040321,5.046265044040321 0 1,1 0,-5.046265044040321A5.046265044040321,5.046265044040321 0 1,1 0,5.046265044040321Z" style="fill: rgb(156, 39, 176); stroke: rgb(211, 211, 211);"></path><path transform="translate(49,554.3272727272728)" d="M0,5.046265044040321A5.046265044040321,5.046265044040321 0 1,1 0,-5.046265044040321A5.046265044040321,5.046265044040321 0 1,1 0,5.046265044040321Z" style="fill: rgb(156, 39, 176); stroke: rgb(211, 211, 211);"></path><path transform="translate(61.72727272727272,543.5636363636364)" d="M0,5.046265044040321A5.046265044040321,5.046265044040321 0 1,1 0,-5.046265044040321A5.046265044040321,5.046265044040321 0 1,1 0,5.046265044040321Z" style="fill: rgb(156, 39, 176); stroke: rgb(211, 211, 211);"></path><path transform="translate(74.45454545454544,532.8000000000001)" d="M0,5.046265044040321A5.046265044040321,5.046265044040321 0 1,1 0,-5.046265044040321A5.046265044040321,5.046265044040321 0 1,1 0,5.046265044040321Z" style="fill: rgb(156, 39, 176); stroke: rgb(211, 211, 211);"></path><path transform="translate(87.18181818181817,522.0363636363636)" d="M0,5.046265044040321A5.046265044040321,5.046265044040321 0 1,1 0,-5.046265044040321A5.046265044040321,5.046265044040321 0 1,1 0,5.046265044040321Z" style="fill: rgb(156, 39, 176); stroke: rgb(211, 211, 211);"></path><path transform="translate(99.90909090909089,511.27272727272725)" d="M0,5.046265044040321A5.046265044040321,5.046265044040321 0 1,1 0,-5.046265044040321A5.046265044040321,5.046265044040321 0 1,1 0,5.046265044040321Z" style="fill: rgb(156, 39, 176); stroke: rgb(211, 211, 211);"></path><path transform="translate(112.63636363636363,511.27272727272725)" d="M0,5.046265044040321A5.046265044040321,5.046265044040321 0 1,1 0,-5.046265044040321A5.046265044040321,5.046265044040321 0 1,1 0,5.046265044040321Z" style="fill: rgb(156, 39, 176); stroke: rgb(211, 211, 211);"></path><path transform="translate(125.36363636363636,500.5090909090909)" d="M0,5.046265044040321A5.046265044040321,5.046265044040321 0 1,1 0,-5.046265044040321A5.046265044040321,5.046265044040321 0 1,1 0,5.046265044040321Z" style="fill: rgb(156, 39, 176); stroke: rgb(211, 211, 211);"></path><path transform="translate(138.09090909090907,489.74545454545455)" d="M0,5.046265044040321A5.046265044040321,5.046265044040321 0 1,1 0,-5.046265044040321A5.046265044040321,5.046265044040321 0 1,1 0,5.046265044040321Z" style="fill: rgb(156, 39, 176); stroke: rgb(211, 211, 211);"></path><path transform="translate(150.8181818181818,489.74545454545455)" d="M0,5.046265044040321A5.046265044040321,5.046265044040321 0 1,1 0,-5.046265044040321A5.046265044040321,5.046265044040321 0 1,1 0,5.046265044040321Z" style="fill: rgb(156, 39, 176); stroke: rgb(211, 211, 211);"></path><path transform="translate(163.54545454545453,478.9818181818182)" d="M0,5.046265044040321A5.046265044040321,5.046265044040321 0 1,1 0,-5.046265044040321A5.046265044040321,5.046265044040321 0 1,1 0,5.046265044040321Z" style="fill: rgb(156, 39, 176); stroke: rgb(211, 211, 211);"></path><path transform="translate(176.27272727272725,468.2181818181818)" d="M0,5.046265044040321A5.046265044040321,5.046265044040321 0 1,1 0,-5.046265044040321A5.046265044040321,5.046265044040321 0 1,1 0,5.046265044040321Z" style="fill: rgb(156, 39, 176); stroke: rgb(211, 211, 211);"></path><path transform="translate(189,457.45454545454544)" d="M0,5.046265044040321A5.046265044040321,5.046265044040321 0 1,1 0,-5.046265044040321A5.046265044040321,5.046265044040321 0 1,1 0,5.046265044040321Z" style="fill: rgb(156, 39, 176); stroke: rgb(211, 211, 211);"></path><path transform="translate(201.7272727272727,446.6909090909091)" d="M0,5.046265044040321A5.046265044040321,5.046265044040321 0 1,1 0,-5.046265044040321A5.046265044040321,5.046265044040321 0 1,1 0,5.046265044040321Z" style="fill: rgb(156, 39, 176); stroke: rgb(211, 211, 211);"></path><path transform="translate(214.45454545454547,435.9272727272727)" d="M0,5.046265044040321A5.046265044040321,5.046265044040321 0 1,1 0,-5.046265044040321A5.046265044040321,5.046265044040321 0 1,1 0,5.046265044040321Z" style="fill: rgb(156, 39, 176); stroke: rgb(211, 211, 211);"></path><path transform="translate(227.18181818181816,425.1636363636364)" d="M0,5.046265044040321A5.046265044040321,5.046265044040321 0 1,1 0,-5.046265044040321A5.046265044040321,5.046265044040321 0 1,1 0,5.046265044040321Z" style="fill: rgb(156, 39, 176); stroke: rgb(211, 211, 211);"></path><path transform="translate(239.9090909090909,425.1636363636364)" d="M0,5.046265044040321A5.046265044040321,5.046265044040321 0 1,1 0,-5.046265044040321A5.046265044040321,5.046265044040321 0 1,1 0,5.046265044040321Z" style="fill: rgb(156, 39, 176); stroke: rgb(211, 211, 211);"></path><path transform="translate(252.63636363636365,414.4)" d="M0,5.046265044040321A5.046265044040321,5.046265044040321 0 1,1 0,-5.046265044040321A5.046265044040321,5.046265044040321 0 1,1 0,5.046265044040321Z" style="fill: rgb(156, 39, 176); stroke: rgb(211, 211, 211);"></path><path transform="translate(265.3636363636364,403.6363636363637)" d="M0,5.046265044040321A5.046265044040321,5.046265044040321 0 1,1 0,-5.046265044040321A5.046265044040321,5.046265044040321 0 1,1 0,5.046265044040321Z" style="fill: rgb(156, 39, 176); stroke: rgb(211, 211, 211);"></path><path transform="translate(278.0909090909091,392.8727272727272)" d="M0,5.046265044040321A5.046265044040321,5.046265044040321 0 1,1 0,-5.046265044040321A5.046265044040321,5.046265044040321 0 1,1 0,5.046265044040321Z" style="fill: rgb(156, 39, 176); stroke: rgb(211, 211, 211);"></path><path transform="translate(290.81818181818187,382.1090909090909)" d="M0,5.046265044040321A5.046265044040321,5.046265044040321 0 1,1 0,-5.046265044040321A5.046265044040321,5.046265044040321 0 1,1 0,5.046265044040321Z" style="fill: rgb(156, 39, 176); stroke: rgb(211, 211, 211);"></path><path transform="translate(303.54545454545456,371.3454545454545)" d="M0,5.046265044040321A5.046265044040321,5.046265044040321 0 1,1 0,-5.046265044040321A5.046265044040321,5.046265044040321 0 1,1 0,5.046265044040321Z" style="fill: rgb(156, 39, 176); stroke: rgb(211, 211, 211);"></path><path transform="translate(316.27272727272725,360.5818181818182)" d="M0,5.046265044040321A5.046265044040321,5.046265044040321 0 1,1 0,-5.046265044040321A5.046265044040321,5.046265044040321 0 1,1 0,5.046265044040321Z" style="fill: rgb(156, 39, 176); stroke: rgb(211, 211, 211);"></path><path transform="translate(329,349.81818181818176)" d="M0,5.046265044040321A5.046265044040321,5.046265044040321 0 1,1 0,-5.046265044040321A5.046265044040321,5.046265044040321 0 1,1 0,5.046265044040321Z" style="fill: rgb(156, 39, 176); stroke: rgb(211, 211, 211);"></path><path transform="translate(341.72727272727275,339.05454545454546)" d="M0,5.046265044040321A5.046265044040321,5.046265044040321 0 1,1 0,-5.046265044040321A5.046265044040321,5.046265044040321 0 1,1 0,5.046265044040321Z" style="fill: rgb(156, 39, 176); stroke: rgb(211, 211, 211);"></path><path transform="translate(354.4545454545455,328.2909090909091)" d="M0,5.046265044040321A5.046265044040321,5.046265044040321 0 1,1 0,-5.046265044040321A5.046265044040321,5.046265044040321 0 1,1 0,5.046265044040321Z" style="fill: rgb(156, 39, 176); stroke: rgb(211, 211, 211);"></path><path transform="translate(367.1818181818182,328.2909090909091)" d="M0,5.046265044040321A5.046265044040321,5.046265044040321 0 1,1 0,-5.046265044040321A5.046265044040321,5.046265044040321 0 1,1 0,5.046265044040321Z" style="fill: rgb(156, 39, 176); stroke: rgb(211, 211, 211);"></path><path transform="translate(379.9090909090909,317.52727272727276)" d="M0,5.046265044040321A5.046265044040321,5.046265044040321 0 1,1 0,-5.046265044040321A5.046265044040321,5.046265044040321 0 1,1 0,5.046265044040321Z" style="fill: rgb(156, 39, 176); stroke: rgb(211, 211, 211);"></path><path transform="translate(392.6363636363636,306.76363636363635)" d="M0,5.046265044040321A5.046265044040321,5.046265044040321 0 1,1 0,-5.046265044040321A5.046265044040321,5.046265044040321 0 1,1 0,5.046265044040321Z" style="fill: rgb(156, 39, 176); stroke: rgb(211, 211, 211);"></path><path transform="translate(405.3636363636364,306.76363636363635)" d="M0,5.046265044040321A5.046265044040321,5.046265044040321 0 1,1 0,-5.046265044040321A5.046265044040321,5.046265044040321 0 1,1 0,5.046265044040321Z" style="fill: rgb(156, 39, 176); stroke: rgb(211, 211, 211);"></path><path transform="translate(418.0909090909091,296)" d="M0,5.046265044040321A5.046265044040321,5.046265044040321 0 1,1 0,-5.046265044040321A5.046265044040321,5.046265044040321 0 1,1 0,5.046265044040321Z" style="fill: rgb(156, 39, 176); stroke: rgb(211, 211, 211);"></path><path transform="translate(430.8181818181818,285.23636363636365)" d="M0,5.046265044040321A5.046265044040321,5.046265044040321 0 1,1 0,-5.046265044040321A5.046265044040321,5.046265044040321 0 1,1 0,5.046265044040321Z" style="fill: rgb(156, 39, 176); stroke: rgb(211, 211, 211);"></path><path transform="translate(443.54545454545456,274.47272727272724)" d="M0,5.046265044040321A5.046265044040321,5.046265044040321 0 1,1 0,-5.046265044040321A5.046265044040321,5.046265044040321 0 1,1 0,5.046265044040321Z" style="fill: rgb(156, 39, 176); stroke: rgb(211, 211, 211);"></path><path transform="translate(456.2727272727273,263.7090909090909)" d="M0,5.046265044040321A5.046265044040321,5.046265044040321 0 1,1 0,-5.046265044040321A5.046265044040321,5.046265044040321 0 1,1 0,5.046265044040321Z" style="fill: rgb(156, 39, 176); stroke: rgb(211, 211, 211);"></path><path transform="translate(469.00000000000006,252.94545454545454)" d="M0,5.046265044040321A5.046265044040321,5.046265044040321 0 1,1 0,-5.046265044040321A5.046265044040321,5.046265044040321 0 1,1 0,5.046265044040321Z" style="fill: rgb(156, 39, 176); stroke: rgb(211, 211, 211);"></path><path transform="translate(481.7272727272727,242.18181818181816)" d="M0,5.046265044040321A5.046265044040321,5.046265044040321 0 1,1 0,-5.046265044040321A5.046265044040321,5.046265044040321 0 1,1 0,5.046265044040321Z" style="fill: rgb(156, 39, 176); stroke: rgb(211, 211, 211);"></path><path transform="translate(494.45454545454544,231.4181818181818)" d="M0,5.046265044040321A5.046265044040321,5.046265044040321 0 1,1 0,-5.046265044040321A5.046265044040321,5.046265044040321 0 1,1 0,5.046265044040321Z" style="fill: rgb(156, 39, 176); stroke: rgb(211, 211, 211);"></path><path transform="translate(507.18181818181813,231.4181818181818)" d="M0,5.046265044040321A5.046265044040321,5.046265044040321 0 1,1 0,-5.046265044040321A5.046265044040321,5.046265044040321 0 1,1 0,5.046265044040321Z" style="fill: rgb(156, 39, 176); stroke: rgb(211, 211, 211);"></path><path transform="translate(519.9090909090909,220.65454545454543)" d="M0,5.046265044040321A5.046265044040321,5.046265044040321 0 1,1 0,-5.046265044040321A5.046265044040321,5.046265044040321 0 1,1 0,5.046265044040321Z" style="fill: rgb(156, 39, 176); stroke: rgb(211, 211, 211);"></path><path transform="translate(532.6363636363636,209.89090909090908)" d="M0,5.046265044040321A5.046265044040321,5.046265044040321 0 1,1 0,-5.046265044040321A5.046265044040321,5.046265044040321 0 1,1 0,5.046265044040321Z" style="fill: rgb(156, 39, 176); stroke: rgb(211, 211, 211);"></path><path transform="translate(545.3636363636364,199.1272727272727)" d="M0,5.046265044040321A5.046265044040321,5.046265044040321 0 1,1 0,-5.046265044040321A5.046265044040321,5.046265044040321 0 1,1 0,5.046265044040321Z" style="fill: rgb(156, 39, 176); stroke: rgb(211, 211, 211);"></path><path transform="translate(558.0909090909091,188.3636363636364)" d="M0,5.046265044040321A5.046265044040321,5.046265044040321 0 1,1 0,-5.046265044040321A5.046265044040321,5.046265044040321 0 1,1 0,5.046265044040321Z" style="fill: rgb(156, 39, 176); stroke: rgb(211, 211, 211);"></path><path transform="translate(570.8181818181819,177.60000000000002)" d="M0,5.046265044040321A5.046265044040321,5.046265044040321 0 1,1 0,-5.046265044040321A5.046265044040321,5.046265044040321 0 1,1 0,5.046265044040321Z" style="fill: rgb(156, 39, 176); stroke: rgb(211, 211, 211);"></path><path transform="translate(583.5454545454546,166.83636363636367)" d="M0,5.046265044040321A5.046265044040321,5.046265044040321 0 1,1 0,-5.046265044040321A5.046265044040321,5.046265044040321 0 1,1 0,5.046265044040321Z" style="fill: rgb(156, 39, 176); stroke: rgb(211, 211, 211);"></path><path transform="translate(596.2727272727273,156.0727272727273)" d="M0,5.046265044040321A5.046265044040321,5.046265044040321 0 1,1 0,-5.046265044040321A5.046265044040321,5.046265044040321 0 1,1 0,5.046265044040321Z" style="fill: rgb(156, 39, 176); stroke: rgb(211, 211, 211);"></path><path transform="translate(609,145.3090909090909)" d="M0,5.046265044040321A5.046265044040321,5.046265044040321 0 1,1 0,-5.046265044040321A5.046265044040321,5.046265044040321 0 1,1 0,5.046265044040321Z" style="fill: rgb(156, 39, 176); stroke: rgb(211, 211, 211);"></path><path transform="translate(621.7272727272726,134.54545454545456)" d="M0,5.046265044040321A5.046265044040321,5.046265044040321 0 1,1 0,-5.046265044040321A5.046265044040321,5.046265044040321 0 1,1 0,5.046265044040321Z" style="fill: rgb(156, 39, 176); stroke: rgb(211, 211, 211);"></path><path transform="translate(634.4545454545454,123.7818181818182)" d="M0,5.046265044040321A5.046265044040321,5.046265044040321 0 1,1 0,-5.046265044040321A5.046265044040321,5.046265044040321 0 1,1 0,5.046265044040321Z" style="fill: rgb(156, 39, 176); stroke: rgb(211, 211, 211);"></path><path transform="translate(647.1818181818181,113.01818181818183)" d="M0,5.046265044040321A5.046265044040321,5.046265044040321 0 1,1 0,-5.046265044040321A5.046265044040321,5.046265044040321 0 1,1 0,5.046265044040321Z" style="fill: rgb(156, 39, 176); stroke: rgb(211, 211, 211);"></path><path transform="translate(659.9090909090909,102.25454545454545)" d="M0,5.046265044040321A5.046265044040321,5.046265044040321 0 1,1 0,-5.046265044040321A5.046265044040321,5.046265044040321 0 1,1 0,5.046265044040321Z" style="fill: rgb(156, 39, 176); stroke: rgb(211, 211, 211);"></path><path transform="translate(672.6363636363636,91.49090909090908)" d="M0,5.046265044040321A5.046265044040321,5.046265044040321 0 1,1 0,-5.046265044040321A5.046265044040321,5.046265044040321 0 1,1 0,5.046265044040321Z" style="fill: rgb(156, 39, 176); stroke: rgb(211, 211, 211);"></path><path transform="translate(685.3636363636364,80.72727272727272)" d="M0,5.046265044040321A5.046265044040321,5.046265044040321 0 1,1 0,-5.046265044040321A5.046265044040321,5.046265044040321 0 1,1 0,5.046265044040321Z" style="fill: rgb(156, 39, 176); stroke: rgb(211, 211, 211);"></path><path transform="translate(698.0909090909091,69.96363636363635)" d="M0,5.046265044040321A5.046265044040321,5.046265044040321 0 1,1 0,-5.046265044040321A5.046265044040321,5.046265044040321 0 1,1 0,5.046265044040321Z" style="fill: rgb(156, 39, 176); stroke: rgb(211, 211, 211);"></path><path transform="translate(710.8181818181819,59.19999999999999)" d="M0,5.046265044040321A5.046265044040321,5.046265044040321 0 1,1 0,-5.046265044040321A5.046265044040321,5.046265044040321 0 1,1 0,5.046265044040321Z" style="fill: rgb(156, 39, 176); stroke: rgb(211, 211, 211);"></path><path transform="translate(723.5454545454545,59.19999999999999)" d="M0,5.046265044040321A5.046265044040321,5.046265044040321 0 1,1 0,-5.046265044040321A5.046265044040321,5.046265044040321 0 1,1 0,5.046265044040321Z" style="fill: rgb(156, 39, 176); stroke: rgb(211, 211, 211);"></path><path transform="translate(736.2727272727273,48.43636363636362)" d="M0,5.046265044040321A5.046265044040321,5.046265044040321 0 1,1 0,-5.046265044040321A5.046265044040321,5.046265044040321 0 1,1 0,5.046265044040321Z" style="fill: rgb(156, 39, 176); stroke: rgb(211, 211, 211);"></path><path transform="translate(749,37.67272727272725)" d="M0,5.046265044040321A5.046265044040321,5.046265044040321 0 1,1 0,-5.046265044040321A5.046265044040321,5.046265044040321 0 1,1 0,5.046265044040321Z" style="fill: rgb(156, 39, 176); stroke: rgb(211, 211, 211);"></path><path transform="translate(761.7272727272726,26.909090909090885)" d="M0,5.046265044040321A5.046265044040321,5.046265044040321 0 1,1 0,-5.046265044040321A5.046265044040321,5.046265044040321 0 1,1 0,5.046265044040321Z" style="fill: rgb(156, 39, 176); stroke: rgb(211, 211, 211);"></path></g></g><g transform="translate(0,0)"><rect class="background" width="0" height="0" style="fill: none;"></rect><g id="g71" class="type-symbol"><path transform="translate(36.27272727272727,565.0909090909091)" d="M0,5.046265044040321A5.046265044040321,5.046265044040321 0 1,1 0,-5.046265044040321A5.046265044040321,5.046265044040321 0 1,1 0,5.046265044040321Z" style="fill: rgb(0, 150, 136); stroke: rgb(211, 211, 211);"></path><path transform="translate(49,554.3272727272728)" d="M0,5.046265044040321A5.046265044040321,5.046265044040321 0 1,1 0,-5.046265044040321A5.046265044040321,5.046265044040321 0 1,1 0,5.046265044040321Z" style="fill: rgb(0, 150, 136); stroke: rgb(211, 211, 211);"></path><path transform="translate(61.72727272727272,543.5636363636364)" d="M0,5.046265044040321A5.046265044040321,5.046265044040321 0 1,1 0,-5.046265044040321A5.046265044040321,5.046265044040321 0 1,1 0,5.046265044040321Z" style="fill: rgb(0, 150, 136); stroke: rgb(211, 211, 211);"></path><path transform="translate(74.45454545454544,532.8000000000001)" d="M0,5.046265044040321A5.046265044040321,5.046265044040321 0 1,1 0,-5.046265044040321A5.046265044040321,5.046265044040321 0 1,1 0,5.046265044040321Z" style="fill: rgb(0, 150, 136); stroke: rgb(211, 211, 211);"></path><path transform="translate(87.18181818181817,522.0363636363636)" d="M0,5.046265044040321A5.046265044040321,5.046265044040321 0 1,1 0,-5.046265044040321A5.046265044040321,5.046265044040321 0 1,1 0,5.046265044040321Z" style="fill: rgb(0, 150, 136); stroke: rgb(211, 211, 211);"></path><path transform="translate(99.90909090909089,511.27272727272725)" d="M0,5.046265044040321A5.046265044040321,5.046265044040321 0 1,1 0,-5.046265044040321A5.046265044040321,5.046265044040321 0 1,1 0,5.046265044040321Z" style="fill: rgb(0, 150, 136); stroke: rgb(211, 211, 211);"></path><path transform="translate(112.63636363636363,500.5090909090909)" d="M0,5.046265044040321A5.046265044040321,5.046265044040321 0 1,1 0,-5.046265044040321A5.046265044040321,5.046265044040321 0 1,1 0,5.046265044040321Z" style="fill: rgb(0, 150, 136); stroke: rgb(211, 211, 211);"></path><path transform="translate(125.36363636363636,489.74545454545455)" d="M0,5.046265044040321A5.046265044040321,5.046265044040321 0 1,1 0,-5.046265044040321A5.046265044040321,5.046265044040321 0 1,1 0,5.046265044040321Z" style="fill: rgb(0, 150, 136); stroke: rgb(211, 211, 211);"></path><path transform="translate(138.09090909090907,478.9818181818182)" d="M0,5.046265044040321A5.046265044040321,5.046265044040321 0 1,1 0,-5.046265044040321A5.046265044040321,5.046265044040321 0 1,1 0,5.046265044040321Z" style="fill: rgb(0, 150, 136); stroke: rgb(211, 211, 211);"></path><path transform="translate(150.8181818181818,468.2181818181818)" d="M0,5.046265044040321A5.046265044040321,5.046265044040321 0 1,1 0,-5.046265044040321A5.046265044040321,5.046265044040321 0 1,1 0,5.046265044040321Z" style="fill: rgb(0, 150, 136); stroke: rgb(211, 211, 211);"></path><path transform="translate(163.54545454545453,457.45454545454544)" d="M0,5.046265044040321A5.046265044040321,5.046265044040321 0 1,1 0,-5.046265044040321A5.046265044040321,5.046265044040321 0 1,1 0,5.046265044040321Z" style="fill: rgb(0, 150, 136); stroke: rgb(211, 211, 211);"></path><path transform="translate(176.27272727272725,446.6909090909091)" d="M0,5.046265044040321A5.046265044040321,5.046265044040321 0 1,1 0,-5.046265044040321A5.046265044040321,5.046265044040321 0 1,1 0,5.046265044040321Z" style="fill: rgb(0, 150, 136); stroke: rgb(211, 211, 211);"></path><path transform="translate(189,435.9272727272727)" d="M0,5.046265044040321A5.046265044040321,5.046265044040321 0 1,1 0,-5.046265044040321A5.046265044040321,5.046265044040321 0 1,1 0,5.046265044040321Z" style="fill: rgb(0, 150, 136); stroke: rgb(211, 211, 211);"></path><path transform="translate(201.7272727272727,425.1636363636364)" d="M0,5.046265044040321A5.046265044040321,5.046265044040321 0 1,1 0,-5.046265044040321A5.046265044040321,5.046265044040321 0 1,1 0,5.046265044040321Z" style="fill: rgb(0, 150, 136); stroke: rgb(211, 211, 211);"></path><path transform="translate(214.45454545454547,414.4)" d="M0,5.046265044040321A5.046265044040321,5.046265044040321 0 1,1 0,-5.046265044040321A5.046265044040321,5.046265044040321 0 1,1 0,5.046265044040321Z" style="fill: rgb(0, 150, 136); stroke: rgb(211, 211, 211);"></path><path transform="translate(227.18181818181816,403.6363636363637)" d="M0,5.046265044040321A5.046265044040321,5.046265044040321 0 1,1 0,-5.046265044040321A5.046265044040321,5.046265044040321 0 1,1 0,5.046265044040321Z" style="fill: rgb(0, 150, 136); stroke: rgb(211, 211, 211);"></path><path transform="translate(239.9090909090909,392.8727272727272)" d="M0,5.046265044040321A5.046265044040321,5.046265044040321 0 1,1 0,-5.046265044040321A5.046265044040321,5.046265044040321 0 1,1 0,5.046265044040321Z" style="fill: rgb(0, 150, 136); stroke: rgb(211, 211, 211);"></path><path transform="translate(252.63636363636365,382.1090909090909)" d="M0,5.046265044040321A5.046265044040321,5.046265044040321 0 1,1 0,-5.046265044040321A5.046265044040321,5.046265044040321 0 1,1 0,5.046265044040321Z" style="fill: rgb(0, 150, 136); stroke: rgb(211, 211, 211);"></path><path transform="translate(265.3636363636364,371.3454545454545)" d="M0,5.046265044040321A5.046265044040321,5.046265044040321 0 1,1 0,-5.046265044040321A5.046265044040321,5.046265044040321 0 1,1 0,5.046265044040321Z" style="fill: rgb(0, 150, 136); stroke: rgb(211, 211, 211);"></path><path transform="translate(278.0909090909091,360.5818181818182)" d="M0,5.046265044040321A5.046265044040321,5.046265044040321 0 1,1 0,-5.046265044040321A5.046265044040321,5.046265044040321 0 1,1 0,5.046265044040321Z" style="fill: rgb(0, 150, 136); stroke: rgb(211, 211, 211);"></path><path transform="translate(290.81818181818187,349.81818181818176)" d="M0,5.046265044040321A5.046265044040321,5.046265044040321 0 1,1 0,-5.046265044040321A5.046265044040321,5.046265044040321 0 1,1 0,5.046265044040321Z" style="fill: rgb(0, 150, 136); stroke: rgb(211, 211, 211);"></path><path transform="translate(303.54545454545456,349.81818181818176)" d="M0,5.046265044040321A5.046265044040321,5.046265044040321 0 1,1 0,-5.046265044040321A5.046265044040321,5.046265044040321 0 1,1 0,5.046265044040321Z" style="fill: rgb(0, 150, 136); stroke: rgb(211, 211, 211);"></path><path transform="translate(316.27272727272725,339.05454545454546)" d="M0,5.046265044040321A5.046265044040321,5.046265044040321 0 1,1 0,-5.046265044040321A5.046265044040321,5.046265044040321 0 1,1 0,5.046265044040321Z" style="fill: rgb(0, 150, 136); stroke: rgb(211, 211, 211);"></path><path transform="translate(329,328.2909090909091)" d="M0,5.046265044040321A5.046265044040321,5.046265044040321 0 1,1 0,-5.046265044040321A5.046265044040321,5.046265044040321 0 1,1 0,5.046265044040321Z" style="fill: rgb(0, 150, 136); stroke: rgb(211, 211, 211);"></path><path transform="translate(341.72727272727275,317.52727272727276)" d="M0,5.046265044040321A5.046265044040321,5.046265044040321 0 1,1 0,-5.046265044040321A5.046265044040321,5.046265044040321 0 1,1 0,5.046265044040321Z" style="fill: rgb(0, 150, 136); stroke: rgb(211, 211, 211);"></path><path transform="translate(354.4545454545455,306.76363636363635)" d="M0,5.046265044040321A5.046265044040321,5.046265044040321 0 1,1 0,-5.046265044040321A5.046265044040321,5.046265044040321 0 1,1 0,5.046265044040321Z" style="fill: rgb(0, 150, 136); stroke: rgb(211, 211, 211);"></path><path transform="translate(367.1818181818182,296)" d="M0,5.046265044040321A5.046265044040321,5.046265044040321 0 1,1 0,-5.046265044040321A5.046265044040321,5.046265044040321 0 1,1 0,5.046265044040321Z" style="fill: rgb(0, 150, 136); stroke: rgb(211, 211, 211);"></path><path transform="translate(379.9090909090909,285.23636363636365)" d="M0,5.046265044040321A5.046265044040321,5.046265044040321 0 1,1 0,-5.046265044040321A5.046265044040321,5.046265044040321 0 1,1 0,5.046265044040321Z" style="fill: rgb(0, 150, 136); stroke: rgb(211, 211, 211);"></path><path transform="translate(392.6363636363636,274.47272727272724)" d="M0,5.046265044040321A5.046265044040321,5.046265044040321 0 1,1 0,-5.046265044040321A5.046265044040321,5.046265044040321 0 1,1 0,5.046265044040321Z" style="fill: rgb(0, 150, 136); stroke: rgb(211, 211, 211);"></path><path transform="translate(405.3636363636364,263.7090909090909)" d="M0,5.046265044040321A5.046265044040321,5.046265044040321 0 1,1 0,-5.046265044040321A5.046265044040321,5.046265044040321 0 1,1 0,5.046265044040321Z" style="fill: rgb(0, 150, 136); stroke: rgb(211, 211, 211);"></path><path transform="translate(418.0909090909091,252.94545454545454)" d="M0,5.046265044040321A5.046265044040321,5.046265044040321 0 1,1 0,-5.046265044040321A5.046265044040321,5.046265044040321 0 1,1 0,5.046265044040321Z" style="fill: rgb(0, 150, 136); stroke: rgb(211, 211, 211);"></path><path transform="translate(430.8181818181818,242.18181818181816)" d="M0,5.046265044040321A5.046265044040321,5.046265044040321 0 1,1 0,-5.046265044040321A5.046265044040321,5.046265044040321 0 1,1 0,5.046265044040321Z" style="fill: rgb(0, 150, 136); stroke: rgb(211, 211, 211);"></path><path transform="translate(443.54545454545456,231.4181818181818)" d="M0,5.046265044040321A5.046265044040321,5.046265044040321 0 1,1 0,-5.046265044040321A5.046265044040321,5.046265044040321 0 1,1 0,5.046265044040321Z" style="fill: rgb(0, 150, 136); stroke: rgb(211, 211, 211);"></path><path transform="translate(456.2727272727273,220.65454545454543)" d="M0,5.046265044040321A5.046265044040321,5.046265044040321 0 1,1 0,-5.046265044040321A5.046265044040321,5.046265044040321 0 1,1 0,5.046265044040321Z" style="fill: rgb(0, 150, 136); stroke: rgb(211, 211, 211);"></path><path transform="translate(469.00000000000006,209.89090909090908)" d="M0,5.046265044040321A5.046265044040321,5.046265044040321 0 1,1 0,-5.046265044040321A5.046265044040321,5.046265044040321 0 1,1 0,5.046265044040321Z" style="fill: rgb(0, 150, 136); stroke: rgb(211, 211, 211);"></path><path transform="translate(481.7272727272727,199.1272727272727)" d="M0,5.046265044040321A5.046265044040321,5.046265044040321 0 1,1 0,-5.046265044040321A5.046265044040321,5.046265044040321 0 1,1 0,5.046265044040321Z" style="fill: rgb(0, 150, 136); stroke: rgb(211, 211, 211);"></path><path transform="translate(494.45454545454544,188.3636363636364)" d="M0,5.046265044040321A5.046265044040321,5.046265044040321 0 1,1 0,-5.046265044040321A5.046265044040321,5.046265044040321 0 1,1 0,5.046265044040321Z" style="fill: rgb(0, 150, 136); stroke: rgb(211, 211, 211);"></path><path transform="translate(507.18181818181813,177.60000000000002)" d="M0,5.046265044040321A5.046265044040321,5.046265044040321 0 1,1 0,-5.046265044040321A5.046265044040321,5.046265044040321 0 1,1 0,5.046265044040321Z" style="fill: rgb(0, 150, 136); stroke: rgb(211, 211, 211);"></path><path transform="translate(519.9090909090909,166.83636363636367)" d="M0,5.046265044040321A5.046265044040321,5.046265044040321 0 1,1 0,-5.046265044040321A5.046265044040321,5.046265044040321 0 1,1 0,5.046265044040321Z" style="fill: rgb(0, 150, 136); stroke: rgb(211, 211, 211);"></path><path transform="translate(532.6363636363636,156.0727272727273)" d="M0,5.046265044040321A5.046265044040321,5.046265044040321 0 1,1 0,-5.046265044040321A5.046265044040321,5.046265044040321 0 1,1 0,5.046265044040321Z" style="fill: rgb(0, 150, 136); stroke: rgb(211, 211, 211);"></path><path transform="translate(545.3636363636364,145.3090909090909)" d="M0,5.046265044040321A5.046265044040321,5.046265044040321 0 1,1 0,-5.046265044040321A5.046265044040321,5.046265044040321 0 1,1 0,5.046265044040321Z" style="fill: rgb(0, 150, 136); stroke: rgb(211, 211, 211);"></path><path transform="translate(558.0909090909091,145.3090909090909)" d="M0,5.046265044040321A5.046265044040321,5.046265044040321 0 1,1 0,-5.046265044040321A5.046265044040321,5.046265044040321 0 1,1 0,5.046265044040321Z" style="fill: rgb(0, 150, 136); stroke: rgb(211, 211, 211);"></path><path transform="translate(570.8181818181819,134.54545454545456)" d="M0,5.046265044040321A5.046265044040321,5.046265044040321 0 1,1 0,-5.046265044040321A5.046265044040321,5.046265044040321 0 1,1 0,5.046265044040321Z" style="fill: rgb(0, 150, 136); stroke: rgb(211, 211, 211);"></path><path transform="translate(583.5454545454546,123.7818181818182)" d="M0,5.046265044040321A5.046265044040321,5.046265044040321 0 1,1 0,-5.046265044040321A5.046265044040321,5.046265044040321 0 1,1 0,5.046265044040321Z" style="fill: rgb(0, 150, 136); stroke: rgb(211, 211, 211);"></path><path transform="translate(596.2727272727273,113.01818181818183)" d="M0,5.046265044040321A5.046265044040321,5.046265044040321 0 1,1 0,-5.046265044040321A5.046265044040321,5.046265044040321 0 1,1 0,5.046265044040321Z" style="fill: rgb(0, 150, 136); stroke: rgb(211, 211, 211);"></path><path transform="translate(609,102.25454545454545)" d="M0,5.046265044040321A5.046265044040321,5.046265044040321 0 1,1 0,-5.046265044040321A5.046265044040321,5.046265044040321 0 1,1 0,5.046265044040321Z" style="fill: rgb(0, 150, 136); stroke: rgb(211, 211, 211);"></path><path transform="translate(621.7272727272726,91.49090909090908)" d="M0,5.046265044040321A5.046265044040321,5.046265044040321 0 1,1 0,-5.046265044040321A5.046265044040321,5.046265044040321 0 1,1 0,5.046265044040321Z" style="fill: rgb(0, 150, 136); stroke: rgb(211, 211, 211);"></path></g></g></g><g id="g72" class="type-group"><g transform="translate(809.624055366577,0.5)"><rect class="background" width="43" height="46" style="pointer-events: none; fill: none;"></rect><g id="g73" class="type-text" style="pointer-events: none;"><text x="3" y="3" text-anchor="start" dy=".9em" style="font-weight: bold; font-style: normal; font-variant: normal; font-stretch: normal; font-size: 11px; line-height: normal; font-family: sans-serif; fill: rgb(0, 0, 0); opacity: 1;">Year</text></g><g id="g74" class="type-symbol" style="pointer-events: none;"><path transform="translate(7.5,23)" d="M0,3.989422804014327A3.989422804014327,3.989422804014327 0 1,1 0,-3.989422804014327A3.989422804014327,3.989422804014327 0 1,1 0,3.989422804014327Z" style="fill: rgb(156, 39, 176); stroke: rgb(136, 136, 136); stroke-width: 1px; opacity: 1;"></path><path transform="translate(7.5,38)" d="M0,3.989422804014327A3.989422804014327,3.989422804014327 0 1,1 0,-3.989422804014327A3.989422804014327,3.989422804014327 0 1,1 0,3.989422804014327Z" style="fill: rgb(0, 150, 136); stroke: rgb(136, 136, 136); stroke-width: 1px; opacity: 1;"></path></g><g id="g75" class="type-text" style="pointer-events: none;"><text x="16" y="23" text-anchor="start" dy=".35em" style="font-style: normal; font-variant: normal; font-weight: normal; font-stretch: normal; font-size: 10px; line-height: normal; font-family: sans-serif; fill: rgb(0, 0, 0); opacity: 1;">2014</text><text x="16" y="38" text-anchor="start" dy=".35em" style="font-style: normal; font-variant: normal; font-weight: normal; font-stretch: normal; font-size: 10px; line-height: normal; font-family: sans-serif; fill: rgb(0, 0, 0); opacity: 1;">2015</text></g></g></g></g></g></g></svg>