<svg class="marks" width="725" height="495" xmlns="http://www.w3.org/2000/svg"><g transform="translate(46,46)"><g id="g121" class="type-group"><g transform="translate(0,0)"><rect class="background" width="600" height="401" style="pointer-events: none; fill: none;"></rect><g id="g122" class="type-group"><g transform="translate(0,401)"><rect class="background" width="0" height="0" style="pointer-events: none; fill: none;"></rect><g id="g123" class="type-rule" style="pointer-events: none;"><line x1="27.772727272727273" y1="-401" x2="27.772727272727273" y2="0" style="fill: none; stroke: rgb(216, 216, 216); stroke-width: 1px; opacity: 1;"></line><line x1="136.86363636363637" y1="-401" x2="136.86363636363637" y2="0" style="fill: none; stroke: rgb(216, 216, 216); stroke-width: 1px; opacity: 1;"></line><line x1="245.95454545454547" y1="-401" x2="245.95454545454547" y2="0" style="fill: none; stroke: rgb(216, 216, 216); stroke-width: 1px; opacity: 1;"></line><line x1="355.0454545454545" y1="-401" x2="355.0454545454545" y2="0" style="fill: none; stroke: rgb(216, 216, 216); stroke-width: 1px; opacity: 1;"></line><line x1="464.1363636363636" y1="-401" x2="464.1363636363636" y2="0" style="fill: none; stroke: rgb(216, 216, 216); stroke-width: 1px; opacity: 1;"></line><line x1="573.2272727272727" y1="-401" x2="573.2272727272727" y2="0" style="fill: none; stroke: rgb(216, 216, 216); stroke-width: 1px; opacity: 1;"></line></g><g id="g124" class="type-rule" style="pointer-events: none;"><line x1="27.772727272727273" y1="0" x2="27.772727272727273" y2="6" style="fill: none; stroke: rgb(0, 0, 0); stroke-width: 1px; opacity: 1;"></line><line x1="136.86363636363637" y1="0" x2="136.86363636363637" y2="6" style="fill: none; stroke: rgb(0, 0, 0); stroke-width: 1px; opacity: 1;"></line><line x1="245.95454545454547" y1="0" x2="245.95454545454547" y2="6" style="fill: none; stroke: rgb(0, 0, 0); stroke-width: 1px; opacity: 1;"></line><line x1="355.0454545454545" y1="0" x2="355.0454545454545" y2="6" style="fill: none; stroke: rgb(0, 0, 0); stroke-width: 1px; opacity: 1;"></line><line x1="464.1363636363636" y1="0" x2="464.1363636363636" y2="6" style="fill: none; stroke: rgb(0, 0, 0); stroke-width: 1px; opacity: 1;"></line><line x1="573.2272727272727" y1="0" x2="573.2272727272727" y2="6" style="fill: none; stroke: rgb(0, 0, 0); stroke-width: 1px; opacity: 1;"></line></g><g id="g125" class="type-rule" style="pointer-events: none;"></g><g id="g126" class="type-text"><text x="27.772727272727273" y="9" text-anchor="middle" dy=".9em" style="font-style: normal; font-variant: normal; font-weight: normal; font-stretch: normal; font-size: 11px; line-height: normal; font-family: sans-serif; fill: rgb(0, 0, 0); opacity: 1;">R64</text><text x="136.86363636363637" y="9" text-anchor="middle" dy=".9em" style="font-style: normal; font-variant: normal; font-weight: normal; font-stretch: normal; font-size: 11px; line-height: normal; font-family: sans-serif; fill: rgb(0, 0, 0); opacity: 1;">R32</text><text x="245.95454545454547" y="9" text-anchor="middle" dy=".9em" style="font-style: normal; font-variant: normal; font-weight: normal; font-stretch: normal; font-size: 11px; line-height: normal; font-family: sans-serif; fill: rgb(0, 0, 0); opacity: 1;">R16</text><text x="355.0454545454545" y="9" text-anchor="middle" dy=".9em" style="font-style: normal; font-variant: normal; font-weight: normal; font-stretch: normal; font-size: 11px; line-height: normal; font-family: sans-serif; fill: rgb(0, 0, 0); opacity: 1;">QF</text><text x="464.1363636363636" y="9" text-anchor="middle" dy=".9em" style="font-style: normal; font-variant: normal; font-weight: normal; font-stretch: normal; font-size: 11px; line-height: normal; font-family: sans-serif; fill: rgb(0, 0, 0); opacity: 1;">SF</text><text x="573.2272727272727" y="9" text-anchor="middle" dy=".9em" style="font-style: normal; font-variant: normal; font-weight: normal; font-stretch: normal; font-size: 11px; line-height: normal; font-family: sans-serif; fill: rgb(0, 0, 0); opacity: 1;">F</text></g><g id="g127" class="type-path" style="pointer-events: none;"><path transform="translate(0.5,0.5)" d="M0,6V0H600V6" style="fill: none; stroke: rgb(0, 0, 0); stroke-width: 1px;"></path></g><g id="g128" class="type-text"><text x="300" y="35" text-anchor="middle" dy=".35em" style="font-weight: bold; font-style: normal; font-variant: normal; font-stretch: normal; font-size: 11px; line-height: normal; font-family: sans-serif; fill: rgb(0, 0, 0);">Round</text></g></g></g><g id="g129" class="type-group"><g transform="translate(0,0)"><rect class="background" width="0" height="0" style="pointer-events: none; fill: none;"></rect><g id="g130" class="type-rule" style="pointer-events: none;"><line x1="0" y1="371.5131964809384" x2="600" y2="371.5131964809384" style="fill: none; stroke: rgb(216, 216, 216); stroke-width: 1px; opacity: 1;"></line><line x1="0" y1="347.9941348973607" x2="600" y2="347.9941348973607" style="fill: none; stroke: rgb(216, 216, 216); stroke-width: 1px; opacity: 1;"></line><line x1="0" y1="300.95601173020526" x2="600" y2="300.95601173020526" style="fill: none; stroke: rgb(216, 216, 216); stroke-width: 1px; opacity: 1;"></line><line x1="0" y1="206.87976539589437" x2="600" y2="206.87976539589437" style="fill: none; stroke: rgb(216, 216, 216); stroke-width: 1px; opacity: 1;"></line><line x1="0" y1="18.727272727272712" x2="600" y2="18.727272727272712" style="fill: none; stroke: rgb(216, 216, 216); stroke-width: 1px; opacity: 1;"></line></g><g id="g131" class="type-rule" style="pointer-events: none;"><line x1="-6" y1="371.5131964809384" x2="0" y2="371.5131964809384" style="fill: none; stroke: rgb(0, 0, 0); stroke-width: 1px; opacity: 1;"></line><line x1="-6" y1="347.9941348973607" x2="0" y2="347.9941348973607" style="fill: none; stroke: rgb(0, 0, 0); stroke-width: 1px; opacity: 1;"></line><line x1="-6" y1="300.95601173020526" x2="0" y2="300.95601173020526" style="fill: none; stroke: rgb(0, 0, 0); stroke-width: 1px; opacity: 1;"></line><line x1="-6" y1="206.87976539589437" x2="0" y2="206.87976539589437" style="fill: none; stroke: rgb(0, 0, 0); stroke-width: 1px; opacity: 1;"></line><line x1="-6" y1="18.727272727272712" x2="0" y2="18.727272727272712" style="fill: none; stroke: rgb(0, 0, 0); stroke-width: 1px; opacity: 1;"></line></g><g id="g132" class="type-rule" style="pointer-events: none;"></g><g id="g133" class="type-text"><text x="-9" y="371.5131964809384" text-anchor="end" dy=".35em" style="font-style: normal; font-variant: normal; font-weight: normal; font-stretch: normal; font-size: 11px; line-height: normal; font-family: sans-serif; fill: rgb(0, 0, 0); opacity: 1;">2</text><text x="-9" y="347.9941348973607" text-anchor="end" dy=".35em" style="font-style: normal; font-variant: normal; font-weight: normal; font-stretch: normal; font-size: 11px; line-height: normal; font-family: sans-serif; fill: rgb(0, 0, 0); opacity: 1;">4</text><text x="-9" y="300.95601173020526" text-anchor="end" dy=".35em" style="font-style: normal; font-variant: normal; font-weight: normal; font-stretch: normal; font-size: 11px; line-height: normal; font-family: sans-serif; fill: rgb(0, 0, 0); opacity: 1;">8</text><text x="-9" y="206.87976539589437" text-anchor="end" dy=".35em" style="font-style: normal; font-variant: normal; font-weight: normal; font-stretch: normal; font-size: 11px; line-height: normal; font-family: sans-serif; fill: rgb(0, 0, 0); opacity: 1;">16</text><text x="-9" y="18.727272727272712" text-anchor="end" dy=".35em" style="font-style: normal; font-variant: normal; font-weight: normal; font-stretch: normal; font-size: 11px; line-height: normal; font-family: sans-serif; fill: rgb(0, 0, 0); opacity: 1;">32</text></g><g id="g134" class="type-path" style="pointer-events: none;"><path transform="translate(0.5,0.5)" d="M-6,0H0V401H-6" style="fill: none; stroke: rgb(0, 0, 0); stroke-width: 1px;"></path></g><g id="g135" class="type-text"><text x="-35" y="200" text-anchor="middle" transform="rotate(-90 -35,200)" dy=".35em" style="font-weight: bold; font-style: normal; font-variant: normal; font-stretch: normal; font-size: 11px; line-height: normal; font-family: sans-serif; fill: rgb(0, 0, 0);">Seeds Remaining</text></g></g></g><g id="g136" class="type-group"><g transform="translate(0,0)"><rect class="background" width="0" height="0" style="pointer-events: none; fill: none;"></rect><g id="g137" class="type-rule" style="pointer-events: none;"><line x1="27.772727272727273" y1="0" x2="27.772727272727273" y2="401" style="fill: none; stroke: rgb(216, 216, 216); stroke-width: 1px; opacity: 1;"></line><line x1="136.86363636363637" y1="0" x2="136.86363636363637" y2="401" style="fill: none; stroke: rgb(216, 216, 216); stroke-width: 1px; opacity: 1;"></line><line x1="245.95454545454547" y1="0" x2="245.95454545454547" y2="401" style="fill: none; stroke: rgb(216, 216, 216); stroke-width: 1px; opacity: 1;"></line><line x1="355.0454545454545" y1="0" x2="355.0454545454545" y2="401" style="fill: none; stroke: rgb(216, 216, 216); stroke-width: 1px; opacity: 1;"></line><line x1="464.1363636363636" y1="0" x2="464.1363636363636" y2="401" style="fill: none; stroke: rgb(216, 216, 216); stroke-width: 1px; opacity: 1;"></line><line x1="573.2272727272727" y1="0" x2="573.2272727272727" y2="401" style="fill: none; stroke: rgb(216, 216, 216); stroke-width: 1px; opacity: 1;"></line></g><g id="g138" class="type-rule" style="pointer-events: none;"><line x1="27.772727272727273" y1="-6" x2="27.772727272727273" y2="0" style="fill: none; stroke: rgb(0, 0, 0); stroke-width: 1px; opacity: 1;"></line><line x1="136.86363636363637" y1="-6" x2="136.86363636363637" y2="0" style="fill: none; stroke: rgb(0, 0, 0); stroke-width: 1px; opacity: 1;"></line><line x1="245.95454545454547" y1="-6" x2="245.95454545454547" y2="0" style="fill: none; stroke: rgb(0, 0, 0); stroke-width: 1px; opacity: 1;"></line><line x1="355.0454545454545" y1="-6" x2="355.0454545454545" y2="0" style="fill: none; stroke: rgb(0, 0, 0); stroke-width: 1px; opacity: 1;"></line><line x1="464.1363636363636" y1="-6" x2="464.1363636363636" y2="0" style="fill: none; stroke: rgb(0, 0, 0); stroke-width: 1px; opacity: 1;"></line><line x1="573.2272727272727" y1="-6" x2="573.2272727272727" y2="0" style="fill: none; stroke: rgb(0, 0, 0); stroke-width: 1px; opacity: 1;"></line></g><g id="g139" class="type-rule" style="pointer-events: none;"></g><g id="g140" class="type-text"><text x="27.772727272727273" y="-9" text-anchor="middle" style="font-style: normal; font-variant: normal; font-weight: normal; font-stretch: normal; font-size: 11px; line-height: normal; font-family: sans-serif; fill: rgb(0, 0, 0); opacity: 1;">R64</text><text x="136.86363636363637" y="-9" text-anchor="middle" style="font-style: normal; font-variant: normal; font-weight: normal; font-stretch: normal; font-size: 11px; line-height: normal; font-family: sans-serif; fill: rgb(0, 0, 0); opacity: 1;">R32</text><text x="245.95454545454547" y="-9" text-anchor="middle" style="font-style: normal; font-variant: normal; font-weight: normal; font-stretch: normal; font-size: 11px; line-height: normal; font-family: sans-serif; fill: rgb(0, 0, 0); opacity: 1;">R16</text><text x="355.0454545454545" y="-9" text-anchor="middle" style="font-style: normal; font-variant: normal; font-weight: normal; font-stretch: normal; font-size: 11px; line-height: normal; font-family: sans-serif; fill: rgb(0, 0, 0); opacity: 1;">QF</text><text x="464.1363636363636" y="-9" text-anchor="middle" style="font-style: normal; font-variant: normal; font-weight: normal; font-stretch: normal; font-size: 11px; line-height: normal; font-family: sans-serif; fill: rgb(0, 0, 0); opacity: 1;">SF</text><text x="573.2272727272727" y="-9" text-anchor="middle" style="font-style: normal; font-variant: normal; font-weight: normal; font-stretch: normal; font-size: 11px; line-height: normal; font-family: sans-serif; fill: rgb(0, 0, 0); opacity: 1;">F</text></g><g id="g141" class="type-path" style="pointer-events: none;"><path transform="translate(0.5,0.5)" d="M0,-6V0H600V-6" style="fill: none; stroke: rgb(0, 0, 0); stroke-width: 1px;"></path></g><g id="g142" class="type-text"><text x="300" y="-35" text-anchor="middle" dy=".35em" style="font-weight: bold; font-style: normal; font-variant: normal; font-stretch: normal; font-size: 11px; line-height: normal; font-family: sans-serif; fill: rgb(0, 0, 0);">WTA Seed Survival Curves, US Open 2005 - 2015</text></g></g></g><g id="g143" class="type-group"><g transform="translate(0,0)"><rect class="background" width="0" height="0" style="fill: none;"></rect><g id="g144" class="type-line"><path d="M27.272727272727273,18.227272727272712L136.36363636363637,18.227272727272712L245.45454545454547,206.37976539589437L354.5454545454545,300.45601173020526L463.6363636363636,347.4941348973607L572.7272727272727,371.0131964809384" style="fill: none; stroke: rgb(0, 0, 0); stroke-width: 3px;"></path></g></g><g transform="translate(0,0)"><rect class="background" width="0" height="0" style="fill: none;"></rect><g id="g145" class="type-line"><path d="M27.272727272727273,77.02492668621694L136.36363636363637,112.30351906158353L245.45454545454547,229.89882697947212L354.5454545454545,300.45601173020526L463.6363636363636,347.4941348973607L572.7272727272727,371.0131964809384" style="fill: none; stroke: rgb(158, 1, 66); stroke-width: 3px;"></path></g></g><g transform="translate(0,0)"><rect class="background" width="0" height="0" style="fill: none;"></rect><g id="g146" class="type-line"><path d="M27.272727272727273,77.02492668621694L136.36363636363637,112.30351906158353L245.45454545454547,241.65835777126097L354.5454545454545,300.45601173020526L463.6363636363636,347.4941348973607L572.7272727272727,371.0131964809384" style="fill: none; stroke: rgb(213, 62, 79); stroke-width: 3px;"></path></g></g><g transform="translate(0,0)"><rect class="background" width="0" height="0" style="fill: none;"></rect><g id="g147" class="type-line"><path d="M27.272727272727273,77.02492668621694L136.36363636363637,124.06304985337236L245.45454545454547,253.41788856304981L354.5454545454545,312.2155425219941L463.6363636363636,347.4941348973607L572.7272727272727,371.0131964809384" style="fill: none; stroke: rgb(244, 109, 67); stroke-width: 3px;"></path></g></g><g transform="translate(0,0)"><rect class="background" width="0" height="0" style="fill: none;"></rect><g id="g148" class="type-line"><path d="M27.272727272727273,77.02492668621694L136.36363636363637,147.5821114369501L245.45454545454547,241.65835777126097L354.5454545454545,300.45601173020526L463.6363636363636,347.4941348973607L572.7272727272727,371.0131964809384" style="fill: none; stroke: rgb(253, 174, 97); stroke-width: 3px;"></path></g></g><g transform="translate(0,0)"><rect class="background" width="0" height="0" style="fill: none;"></rect><g id="g149" class="type-line"><path d="M27.272727272727273,88.78445747800579L136.36363636363637,206.37976539589437L245.45454545454547,276.93695014662757L354.5454545454545,347.4941348973607L463.6363636363636,371.0131964809384L572.7272727272727,382.7727272727273" style="fill: none; stroke: rgb(254, 224, 139); stroke-width: 3px;"></path></g></g><g transform="translate(0,0)"><rect class="background" width="0" height="0" style="fill: none;"></rect><g id="g150" class="type-line"><path d="M27.272727272727273,65.2653958944281L136.36363636363637,159.34164222873895L245.45454545454547,241.65835777126097L354.5454545454545,312.2155425219941L463.6363636363636,347.4941348973607L572.7272727272727,371.0131964809384" style="fill: none; stroke: rgb(230, 245, 152); stroke-width: 3px;"></path></g></g><g transform="translate(0,0)"><rect class="background" width="0" height="0" style="fill: none;"></rect><g id="g151" class="type-line"><path d="M27.272727272727273,65.2653958944281L136.36363636363637,147.5821114369501L245.45454545454547,241.65835777126097L354.5454545454545,312.2155425219941L463.6363636363636,359.25366568914956L572.7272727272727,371.0131964809384" style="fill: none; stroke: rgb(171, 221, 164); stroke-width: 3px;"></path></g></g><g transform="translate(0,0)"><rect class="background" width="0" height="0" style="fill: none;"></rect><g id="g152" class="type-line"><path d="M27.272727272727273,135.82258064516125L136.36363636363637,171.1011730205278L245.45454545454547,253.41788856304981L354.5454545454545,300.45601173020526L463.6363636363636,347.4941348973607L572.7272727272727,371.0131964809384" style="fill: none; stroke: rgb(102, 194, 165); stroke-width: 3px;"></path></g></g><g transform="translate(0,0)"><rect class="background" width="0" height="0" style="fill: none;"></rect><g id="g153" class="type-line"><path d="M27.272727272727273,88.78445747800579L136.36363636363637,135.82258064516125L245.45454545454547,253.41788856304981L354.5454545454545,323.97507331378296L463.6363636363636,359.25366568914956L572.7272727272727,371.0131964809384" style="fill: none; stroke: rgb(50, 136, 189); stroke-width: 3px;"></path></g></g><g transform="translate(0,0)"><rect class="background" width="0" height="0" style="fill: none;"></rect><g id="g154" class="type-line"><path d="M27.272727272727273,65.2653958944281L136.36363636363637,147.5821114369501L245.45454545454547,265.17741935483866L354.5454545454545,323.97507331378296L463.6363636363636,359.25366568914956L572.7272727272727,371.0131964809384" style="fill: none; stroke: rgb(94, 79, 162); stroke-width: 3px;"></path></g></g></g><g id="g155" class="type-symbol"><path transform="translate(27.272727272727273,147.5821114369501)" d="M0,3.989422804014327A3.989422804014327,3.989422804014327 0 1,1 0,-3.989422804014327A3.989422804014327,3.989422804014327 0 1,1 0,3.989422804014327Z" style="fill: rgb(255, 0, 0); stroke: rgb(0, 0, 0);"></path></g><g id="g156" class="type-text"><text x="27.272727272727273" y="171.1011730205278" text-anchor="start" style="font-style: normal; font-variant: normal; font-weight: normal; font-stretch: normal; font-size: 11px; line-height: normal; font-family: sans-serif; fill: rgb(51, 51, 51); stroke: rgb(0, 0, 0);">US Open 2015</text></g><g id="g157" class="type-group"><g transform="translate(611.5,0.5)"><rect class="background" width="62" height="168" style="pointer-events: none; fill: none;"></rect><g id="g158" class="type-text" style="pointer-events: none;"></g><g id="g159" class="type-symbol" style="pointer-events: none;"><path transform="translate(7.5,7)" d="M0,3.989422804014327A3.989422804014327,3.989422804014327 0 1,1 0,-3.989422804014327A3.989422804014327,3.989422804014327 0 1,1 0,3.989422804014327Z" style="fill: none; stroke: rgb(0, 0, 0); stroke-width: 1px; opacity: 1;"></path><path transform="translate(7.5,22)" d="M0,3.989422804014327A3.989422804014327,3.989422804014327 0 1,1 0,-3.989422804014327A3.989422804014327,3.989422804014327 0 1,1 0,3.989422804014327Z" style="fill: none; stroke: rgb(158, 1, 66); stroke-width: 1px; opacity: 1;"></path><path transform="translate(7.5,37)" d="M0,3.989422804014327A3.989422804014327,3.989422804014327 0 1,1 0,-3.989422804014327A3.989422804014327,3.989422804014327 0 1,1 0,3.989422804014327Z" style="fill: none; stroke: rgb(213, 62, 79); stroke-width: 1px; opacity: 1;"></path><path transform="translate(7.5,52)" d="M0,3.989422804014327A3.989422804014327,3.989422804014327 0 1,1 0,-3.989422804014327A3.989422804014327,3.989422804014327 0 1,1 0,3.989422804014327Z" style="fill: none; stroke: rgb(244, 109, 67); stroke-width: 1px; opacity: 1;"></path><path transform="translate(7.5,67)" d="M0,3.989422804014327A3.989422804014327,3.989422804014327 0 1,1 0,-3.989422804014327A3.989422804014327,3.989422804014327 0 1,1 0,3.989422804014327Z" style="fill: none; stroke: rgb(253, 174, 97); stroke-width: 1px; opacity: 1;"></path><path transform="translate(7.5,82)" d="M0,3.989422804014327A3.989422804014327,3.989422804014327 0 1,1 0,-3.989422804014327A3.989422804014327,3.989422804014327 0 1,1 0,3.989422804014327Z" style="fill: none; stroke: rgb(254, 224, 139); stroke-width: 1px; opacity: 1;"></path><path transform="translate(7.5,97)" d="M0,3.989422804014327A3.989422804014327,3.989422804014327 0 1,1 0,-3.989422804014327A3.989422804014327,3.989422804014327 0 1,1 0,3.989422804014327Z" style="fill: none; stroke: rgb(230, 245, 152); stroke-width: 1px; opacity: 1;"></path><path transform="translate(7.5,112)" d="M0,3.989422804014327A3.989422804014327,3.989422804014327 0 1,1 0,-3.989422804014327A3.989422804014327,3.989422804014327 0 1,1 0,3.989422804014327Z" style="fill: none; stroke: rgb(171, 221, 164); stroke-width: 1px; opacity: 1;"></path><path transform="translate(7.5,127)" d="M0,3.989422804014327A3.989422804014327,3.989422804014327 0 1,1 0,-3.989422804014327A3.989422804014327,3.989422804014327 0 1,1 0,3.989422804014327Z" style="fill: none; stroke: rgb(102, 194, 165); stroke-width: 1px; opacity: 1;"></path><path transform="translate(7.5,142)" d="M0,3.989422804014327A3.989422804014327,3.989422804014327 0 1,1 0,-3.989422804014327A3.989422804014327,3.989422804014327 0 1,1 0,3.989422804014327Z" style="fill: none; stroke: rgb(50, 136, 189); stroke-width: 1px; opacity: 1;"></path><path transform="translate(7.5,157)" d="M0,3.989422804014327A3.989422804014327,3.989422804014327 0 1,1 0,-3.989422804014327A3.989422804014327,3.989422804014327 0 1,1 0,3.989422804014327Z" style="fill: none; stroke: rgb(94, 79, 162); stroke-width: 1px; opacity: 1;"></path></g><g id="g160" class="type-text" style="pointer-events: none;"><text x="16" y="7" text-anchor="start" dy=".35em" style="font-style: normal; font-variant: normal; font-weight: normal; font-stretch: normal; font-size: 10px; line-height: normal; font-family: sans-serif; fill: rgb(0, 0, 0); opacity: 1;">Expected</text><text x="16" y="22" text-anchor="start" dy=".35em" style="font-style: normal; font-variant: normal; font-weight: normal; font-stretch: normal; font-size: 10px; line-height: normal; font-family: sans-serif; fill: rgb(0, 0, 0); opacity: 1;">2005</text><text x="16" y="37" text-anchor="start" dy=".35em" style="font-style: normal; font-variant: normal; font-weight: normal; font-stretch: normal; font-size: 10px; line-height: normal; font-family: sans-serif; fill: rgb(0, 0, 0); opacity: 1;">2006</text><text x="16" y="52" text-anchor="start" dy=".35em" style="font-style: normal; font-variant: normal; font-weight: normal; font-stretch: normal; font-size: 10px; line-height: normal; font-family: sans-serif; fill: rgb(0, 0, 0); opacity: 1;">2007</text><text x="16" y="67" text-anchor="start" dy=".35em" style="font-style: normal; font-variant: normal; font-weight: normal; font-stretch: normal; font-size: 10px; line-height: normal; font-family: sans-serif; fill: rgb(0, 0, 0); opacity: 1;">2008</text><text x="16" y="82" text-anchor="start" dy=".35em" style="font-style: normal; font-variant: normal; font-weight: normal; font-stretch: normal; font-size: 10px; line-height: normal; font-family: sans-serif; fill: rgb(0, 0, 0); opacity: 1;">2009</text><text x="16" y="97" text-anchor="start" dy=".35em" style="font-style: normal; font-variant: normal; font-weight: normal; font-stretch: normal; font-size: 10px; line-height: normal; font-family: sans-serif; fill: rgb(0, 0, 0); opacity: 1;">2010</text><text x="16" y="112" text-anchor="start" dy=".35em" style="font-style: normal; font-variant: normal; font-weight: normal; font-stretch: normal; font-size: 10px; line-height: normal; font-family: sans-serif; fill: rgb(0, 0, 0); opacity: 1;">2011</text><text x="16" y="127" text-anchor="start" dy=".35em" style="font-style: normal; font-variant: normal; font-weight: normal; font-stretch: normal; font-size: 10px; line-height: normal; font-family: sans-serif; fill: rgb(0, 0, 0); opacity: 1;">2012</text><text x="16" y="142" text-anchor="start" dy=".35em" style="font-style: normal; font-variant: normal; font-weight: normal; font-stretch: normal; font-size: 10px; line-height: normal; font-family: sans-serif; fill: rgb(0, 0, 0); opacity: 1;">2013</text><text x="16" y="157" text-anchor="start" dy=".35em" style="font-style: normal; font-variant: normal; font-weight: normal; font-stretch: normal; font-size: 10px; line-height: normal; font-family: sans-serif; fill: rgb(0, 0, 0); opacity: 1;">2014</text></g></g></g></g></g></g></svg>